<?xml version="1.0" encoding="UTF-8" standalone="no"?><!DOCTYPE svg PUBLIC "-//W3C//DTD SVG 1.1//EN" "http://www.w3.org/Graphics/SVG/1.1/DTD/svg11.dtd"><svg width="100%" height="100%" viewBox="0 0 48 48" version="1.1" xmlns="http://www.w3.org/2000/svg" xmlns:xlink="http://www.w3.org/1999/xlink" xml:space="preserve" xmlns:serif="http://www.serif.com/" style="fill-rule:evenodd;clip-rule:evenodd;stroke-linejoin:round;stroke-miterlimit:2;"><path d="M44.063,0.188c-0.451,-0.101 -0.938,-0.163 -1.463,-0.188l-37.163,0c-0.524,0.025 -1.012,0.087 -1.462,0.188c-2.05,0.45 -3.3,1.699 -3.75,3.749c-0.125,0.525 -0.2,1.101 -0.225,1.725l0,36.638c0.025,0.625 0.1,1.2 0.225,1.725c0.45,2.025 1.7,3.275 3.75,3.75c0.5,0.1 1.037,0.163 1.613,0.188l36.862,0c0.6,-0.025 1.137,-0.088 1.612,-0.188c2.025,-0.475 3.275,-1.725 3.75,-3.75c0.101,-0.525 0.163,-1.1 0.188,-1.725l0,-36.638c-0.025,-0.649 -0.087,-1.224 -0.188,-1.724c-0.05,-0.151 -0.087,-0.288 -0.112,-0.413c-0.2,-0.625 -0.475,-1.175 -0.825,-1.65c-0.65,-0.85 -1.587,-1.413 -2.813,-1.687m-1.537,1.312c0.425,0.025 0.825,0.075 1.2,0.15c0.85,0.2 1.5,0.587 1.95,1.163l0,-0.038c0.25,0.325 0.45,0.713 0.6,1.163c0.025,0.125 0.062,0.262 0.113,0.412c0.05,0.4 0.087,0.862 0.112,1.388l0,36.525c-0.025,0.525 -0.075,1.025 -0.15,1.5l0,-0.075c-0.325,1.425 -1.2,2.3 -2.625,2.625l0.038,0c-0.401,0.075 -0.838,0.125 -1.313,0.15l-36.788,0c-0.499,-0.025 -0.962,-0.075 -1.387,-0.15l0.038,0c-1.425,-0.325 -2.301,-1.188 -2.625,-2.588l0,-0.037c-0.101,-0.425 -0.163,-0.888 -0.188,-1.388l0,-36.562c0.025,-0.526 0.087,-1 0.188,-1.425l0,-0.038c0.324,-1.425 1.2,-2.3 2.625,-2.625c0.35,-0.075 0.725,-0.125 1.125,-0.15l37.087,0m-11.4,4.162l-21.75,13.838l0,4.763l7.5,0l21.75,-13.838l0,-4.763l-7.5,0Z" style="fill:#d9944e;fill-rule:nonzero;"/><path d="M43.725,1.65c-0.375,-0.075 -0.775,-0.125 -1.2,-0.15l-37.088,0c-0.399,0.025 -0.774,0.075 -1.124,0.15c-1.425,0.325 -2.301,1.2 -2.625,2.625l0,0.037c-0.101,0.426 -0.163,0.9 -0.188,1.426l0,36.562c0.025,0.5 0.087,0.963 0.188,1.388l0,0.037c0.324,1.4 1.2,2.263 2.625,2.588l-0.038,0c0.425,0.075 0.888,0.125 1.387,0.15l36.788,0c0.475,-0.025 0.912,-0.075 1.313,-0.15l-0.038,0c1.425,-0.325 2.3,-1.2 2.625,-2.625l0,0.075c0.075,-0.475 0.125,-0.975 0.15,-1.5l0,-36.525c-0.025,-0.526 -0.062,-0.988 -0.112,-1.388c-0.051,-0.15 -0.088,-0.287 -0.113,-0.412c-0.15,-0.45 -0.35,-0.838 -0.6,-1.163l0,0.038c-0.45,-0.576 -1.1,-0.963 -1.95,-1.163m-36.225,41.813l0,-11.25l33,0l0,11.25l-33,0m0,-39.001l33,0l0,21.001l-33,0l0,-21.001Z" style="fill:#cd8c4a;fill-rule:nonzero;"/><path d="M40.5,4.462l-33,0l0,21.001l33,0l0,-21.001m-31.125,15.038l21.75,-13.838l7.5,0l0,4.763l-21.75,13.838l-7.5,0l0,-4.763m-1.875,12.713l0,11.25l33,0l0,-11.25l-33,0Z" style="fill:#aa733c;fill-rule:nonzero;"/><path d="M0,26.363c0.05,2.325 1.913,3.525 5.588,3.6l36.824,0c3.675,-0.075 5.538,-1.276 5.588,-3.6l0,-1.5c-0.05,2.325 -1.913,3.525 -5.588,3.6l-36.824,0c-3.675,-0.075 -5.538,-1.276 -5.588,-3.6l0,1.5Z" style="fill:#fff;fill-opacity:0.1;fill-rule:nonzero;"/><path d="M0,26.363l0,15.937c0.025,0.625 0.1,1.2 0.225,1.725c0.45,2.025 1.7,3.275 3.75,3.75c0.5,0.1 1.037,0.163 1.613,0.188l36.862,0c0.6,-0.025 1.137,-0.088 1.612,-0.188c2.025,-0.475 3.275,-1.725 3.75,-3.75c0.101,-0.525 0.163,-1.1 0.188,-1.725l0,-15.937c-0.05,2.325 -1.913,3.525 -5.588,3.6l-36.824,0c-3.675,-0.075 -5.538,-1.275 -5.588,-3.6Z" style="fill-opacity:0.1;fill-rule:nonzero;"/></svg>