<?xml version="1.0" encoding="UTF-8" standalone="no"?><!DOCTYPE svg PUBLIC "-//W3C//DTD SVG 1.1//EN" "http://www.w3.org/Graphics/SVG/1.1/DTD/svg11.dtd"><svg width="100%" height="100%" viewBox="0 0 48 48" version="1.1" xmlns="http://www.w3.org/2000/svg" xmlns:xlink="http://www.w3.org/1999/xlink" xml:space="preserve" xmlns:serif="http://www.serif.com/" style="fill-rule:evenodd;clip-rule:evenodd;stroke-linejoin:round;stroke-miterlimit:2;"><path d="M5.438,0c-0.525,0.025 -1.013,0.088 -1.463,0.188c-2.05,0.449 -3.3,1.7 -3.75,3.749c-0.125,0.526 -0.2,1.1 -0.225,1.726l0,36.637c0.025,0.625 0.1,1.2 0.225,1.725c0.45,2.025 1.7,3.275 3.75,3.75c0.5,0.1 1.037,0.163 1.613,0.187l36.862,0c0.6,-0.024 1.137,-0.087 1.612,-0.187c2.025,-0.475 3.275,-1.725 3.75,-3.75c0.101,-0.525 0.163,-1.1 0.188,-1.725l0,-36.637c-0.025,-0.65 -0.087,-1.225 -0.188,-1.725c-0.05,-0.151 -0.087,-0.288 -0.112,-0.413c-0.2,-0.625 -0.475,-1.175 -0.825,-1.65c-0.65,-0.85 -1.587,-1.412 -2.813,-1.687c-0.45,-0.1 -0.937,-0.163 -1.462,-0.188l-37.162,0m-1.125,1.65c0.35,-0.075 0.725,-0.125 1.125,-0.15l37.087,0c0.425,0.025 0.825,0.075 1.2,0.15c0.85,0.2 1.5,0.587 1.95,1.163l0,-0.038c0.25,0.325 0.45,0.713 0.6,1.163c0.025,0.125 0.062,0.262 0.113,0.412c0.05,0.4 0.087,0.862 0.112,1.388l0,36.524c-0.025,0.526 -0.075,1.025 -0.15,1.5l0,-0.075c-0.325,1.426 -1.2,2.301 -2.625,2.626l0.038,0c-0.401,0.074 -0.838,0.125 -1.313,0.149l-36.788,0c-0.499,-0.024 -0.962,-0.075 -1.387,-0.149l0.038,0c-1.425,-0.325 -2.301,-1.188 -2.625,-2.588l0,-0.037c-0.101,-0.426 -0.163,-0.888 -0.188,-1.388l0,-36.562c0.025,-0.526 0.087,-1.001 0.188,-1.425l0,-0.038c0.324,-1.425 1.2,-2.3 2.625,-2.625m26.812,4.013l-21.75,13.837l0,4.762l7.5,0l21.75,-13.837l0,-4.762l-7.5,0Z" style="fill:#d9944e;fill-rule:nonzero;"/><path d="M5.438,1.5c-0.4,0.025 -0.775,0.075 -1.125,0.15c-1.425,0.325 -2.301,1.2 -2.625,2.625l0,0.037c-0.101,0.425 -0.163,0.9 -0.188,1.426l0,36.562c0.025,0.5 0.087,0.962 0.188,1.388l0,0.037c0.324,1.4 1.2,2.263 2.625,2.588l-0.038,0c0.425,0.074 0.888,0.125 1.387,0.149l36.788,0c0.475,-0.024 0.912,-0.075 1.313,-0.149l-0.038,0c1.425,-0.325 2.3,-1.2 2.625,-2.625l0,0.074c0.075,-0.474 0.125,-0.974 0.15,-1.5l0,-36.524c-0.025,-0.526 -0.062,-0.988 -0.112,-1.388c-0.051,-0.15 -0.088,-0.287 -0.113,-0.412c-0.15,-0.45 -0.35,-0.838 -0.6,-1.163l0,0.038c-0.45,-0.576 -1.1,-0.963 -1.95,-1.163c-0.375,-0.075 -0.775,-0.125 -1.2,-0.15l-37.088,0m2.063,23.962l0,-21l33,0l0,21l-33,0m0,6.75l33,0l0,11.25l-33,0l0,-11.25Z" style="fill:#cd8c4a;fill-rule:nonzero;"/><path d="M40.5,32.212l-33,0l0,11.25l33,0l0,-11.25m-33,-27.75l0,21l33,0l0,-21l-33,0m1.875,15.038l21.75,-13.837l7.5,0l0,4.762l-21.75,13.837l-7.5,0l0,-4.762Z" style="fill:#aa733c;fill-rule:nonzero;"/><path d="M0,26.363c0.05,2.325 1.913,3.524 5.588,3.599l36.824,0c3.675,-0.075 5.538,-1.274 5.588,-3.599l0,-1.5c-0.05,2.325 -1.913,3.524 -5.588,3.599l-36.824,0c-3.675,-0.075 -5.538,-1.274 -5.588,-3.599l0,1.5Z" style="fill:#fff;fill-opacity:0.1;fill-rule:nonzero;"/><path d="M5.588,29.962c-3.675,-0.075 -5.538,-1.274 -5.588,-3.599l0,15.937c0.025,0.625 0.1,1.2 0.225,1.725c0.45,2.025 1.7,3.275 3.75,3.75c0.5,0.1 1.037,0.163 1.613,0.187l36.862,0c0.6,-0.024 1.137,-0.087 1.612,-0.187c2.025,-0.475 3.275,-1.725 3.75,-3.75c0.101,-0.525 0.163,-1.1 0.188,-1.725l0,-15.937c-0.05,2.325 -1.913,3.524 -5.588,3.599l-36.824,0Z" style="fill-opacity:0.1;fill-rule:nonzero;"/><path id="Layer0_43_MEMBER_1_FILL" d="M5.963,0c-3.976,0 -5.963,1.988 -5.963,5.962l0,36.076c0,3.974 1.987,5.962 5.963,5.962l36.074,0c3.976,0 5.963,-1.988 5.963,-5.962l0,-36.076c0,-3.974 -1.987,-5.962 -5.963,-5.962l-36.074,0Z" style="fill-opacity:0.3;fill-rule:nonzero;"/></svg>