<?xml version="1.0" encoding="UTF-8" standalone="no"?><!DOCTYPE svg PUBLIC "-//W3C//DTD SVG 1.1//EN" "http://www.w3.org/Graphics/SVG/1.1/DTD/svg11.dtd"><svg width="100%" height="100%" viewBox="0 0 48 48" version="1.1" xmlns="http://www.w3.org/2000/svg" xmlns:xlink="http://www.w3.org/1999/xlink" xml:space="preserve" xmlns:serif="http://www.serif.com/" style="fill-rule:evenodd;clip-rule:evenodd;stroke-linejoin:round;stroke-miterlimit:2;"><path d="M11.213,6.97l-0.038,0c-0.924,0.126 -1.749,0.326 -2.475,0.6c-1.286,0.483 -2.274,1.195 -2.962,2.138c-0.562,0.771 -0.925,1.696 -1.088,2.775c-0.075,0.175 -0.112,0.362 -0.112,0.562l0,9.863c-0.05,1.375 0.337,2.387 1.162,3.037l0.075,0.038c-0.05,0 -0.075,0.012 -0.075,0.037c-0.875,0.225 -1.662,0.638 -2.362,1.238l-0.038,0.037c-1.225,1.1 -1.825,2.388 -1.8,3.863l0,0.15c0,1.525 0.588,2.787 1.763,3.787c0.85,0.825 1.85,1.35 3,1.575c0,0.1 0.012,0.213 0.037,0.338c0.025,0.375 0.1,0.737 0.225,1.087c0.15,0.5 0.313,0.938 0.488,1.313c0.025,0.025 0.05,0.05 0.075,0.075c0.9,1.675 2.487,2.512 4.762,2.512l24.525,0c3.1,-0.025 4.95,-1.5 5.55,-4.425c0,-0.025 0.013,-0.037 0.038,-0.037l0,-0.113c0.075,-0.175 0.112,-0.362 0.112,-0.562l0,-0.113c0,-0.025 0.013,-0.05 0.038,-0.075l0,-0.112c0.95,-0.225 1.8,-0.688 2.55,-1.388c1.225,-1.025 1.837,-2.312 1.837,-3.862c0,-1.575 -0.6,-2.913 -1.8,-4.013l-0.037,-0.037c-0.625,-0.55 -1.313,-0.938 -2.063,-1.163c-0.025,-0.125 -0.037,-0.237 -0.037,-0.337l0,-0.075c0.65,-0.625 0.975,-1.55 0.975,-2.775l0,-9.863c0,-0.275 -0.05,-0.512 -0.15,-0.712c-0.192,-1.017 -0.567,-1.892 -1.125,-2.625c-0.696,-0.951 -1.696,-1.663 -3,-2.138c-0.714,-0.257 -1.514,-0.445 -2.4,-0.562c-8.575,-1.325 -17.125,-1.338 -25.65,-0.038m-5.138,6.075c0.179,-1.439 0.791,-2.552 1.838,-3.337c0.868,-0.647 2.031,-1.072 3.487,-1.275c2.918,-0.443 5.83,-0.731 8.738,-0.863c2.5,-0.112 4.988,-0.112 7.462,0c3.019,0.136 6.032,0.436 9.038,0.9c1.425,0.191 2.563,0.604 3.412,1.238c1.069,0.778 1.706,1.891 1.913,3.337l0.075,0l0,10.013c-0.031,0.913 -0.381,1.551 -1.05,1.912c0.031,0.286 0.056,0.574 0.075,0.863c0,0.15 0.012,0.312 0.037,0.487c0.016,0.332 0.028,0.657 0.038,0.975c0.982,0.113 1.832,0.475 2.55,1.088c0.875,0.8 1.312,1.775 1.312,2.925c0,1.075 -0.437,1.975 -1.312,2.7c-0.807,0.783 -1.782,1.195 -2.925,1.237c-0.047,0.401 -0.097,0.801 -0.15,1.2c-0.025,0.125 -0.038,0.263 -0.038,0.413c-0.05,0.125 -0.087,0.262 -0.112,0.412c-0.45,2.15 -1.813,3.225 -4.088,3.225l-24.525,0c-1.65,0 -2.812,-0.587 -3.487,-1.762c-0.15,-0.3 -0.288,-0.663 -0.413,-1.088c-0.075,-0.25 -0.125,-0.512 -0.15,-0.787c-0.088,-0.539 -0.176,-1.077 -0.262,-1.613l-0.15,0c-1.2,0 -2.225,-0.412 -3.075,-1.237c-0.875,-0.7 -1.313,-1.6 -1.313,-2.7l0,-0.15c0,-1.05 0.438,-1.975 1.313,-2.775c0.793,-0.677 1.731,-1.039 2.812,-1.088c0.02,-0.224 0.032,-0.449 0.038,-0.675l0,-0.15c0.022,-0.463 0.047,-0.925 0.075,-1.387c-0.75,-0.304 -1.15,-0.904 -1.2,-1.8l0,-0.375l0,-9.863l0.037,0Z" style="fill:#fff;fill-rule:nonzero;"/><path d="M7.913,9.708c-1.047,0.785 -1.659,1.898 -1.838,3.337l-0.037,0l0,10.238c0.05,0.896 0.45,1.496 1.2,1.8c-0.028,0.462 -0.053,0.924 -0.075,1.387l0,0.15c-0.006,0.226 -0.018,0.451 -0.038,0.675c-1.081,0.049 -2.019,0.411 -2.812,1.088c-0.875,0.8 -1.313,1.725 -1.313,2.775l0,0.15c0,1.1 0.438,2 1.313,2.7c0.85,0.825 1.875,1.237 3.075,1.237l0.15,0c0.086,0.536 0.174,1.074 0.262,1.613c0.025,0.275 0.075,0.537 0.15,0.787c0.125,0.425 0.263,0.788 0.413,1.088c0.675,1.175 1.837,1.762 3.487,1.762l24.525,0c2.275,0 3.638,-1.075 4.088,-3.225c0.025,-0.15 0.062,-0.287 0.112,-0.412c0,-0.15 0.013,-0.288 0.038,-0.413c0.053,-0.399 0.103,-0.799 0.15,-1.2c1.143,-0.042 2.118,-0.454 2.925,-1.237c0.875,-0.725 1.312,-1.625 1.312,-2.7c0,-1.15 -0.437,-2.125 -1.312,-2.925c-0.718,-0.613 -1.568,-0.975 -2.55,-1.088c-0.01,-0.318 -0.022,-0.643 -0.038,-0.975c-0.025,-0.175 -0.037,-0.337 -0.037,-0.487c-0.019,-0.289 -0.044,-0.577 -0.075,-0.863c0.669,-0.361 1.019,-0.999 1.05,-1.912l0,-10.013l-0.075,0c-0.207,-1.446 -0.844,-2.559 -1.913,-3.337c-0.849,-0.634 -1.987,-1.047 -3.412,-1.238c-3.006,-0.464 -6.019,-0.764 -9.038,-0.9c-2.474,-0.112 -4.962,-0.112 -7.462,0c-2.908,0.132 -5.82,0.42 -8.738,0.863c-1.456,0.203 -2.619,0.628 -3.487,1.275m-0.375,3.637c0.008,-0.034 0.008,-0.072 0,-0.112c0.138,-0.998 0.563,-1.773 1.275,-2.325c0.699,-0.5 1.624,-0.837 2.775,-1.013l0.037,0c2.868,-0.421 5.73,-0.696 8.588,-0.825c2.45,-0.11 4.888,-0.11 7.312,0c2.969,0.133 5.932,0.421 8.888,0.863c1.152,0.163 2.077,0.488 2.775,0.975c0.72,0.552 1.145,1.327 1.275,2.325c0.025,0.098 0.05,0.185 0.075,0.262l0,9.488c-0.012,0.308 -0.1,0.533 -0.263,0.675c-0.251,0.144 -0.451,0.344 -0.6,0.6c-0.129,0.251 -0.191,0.513 -0.187,0.787c0.031,0.299 0.056,0.586 0.075,0.863c0.005,0.16 0.017,0.323 0.037,0.487c0.016,0.319 0.028,0.632 0.038,0.938c0.015,0.387 0.152,0.712 0.412,0.975c0.255,0.294 0.568,0.456 0.938,0.487c0.663,0.079 1.238,0.316 1.725,0.713c0.52,0.503 0.782,1.103 0.787,1.8c-0.009,0.611 -0.272,1.123 -0.787,1.537c-0.019,0.031 -0.044,0.056 -0.075,0.075c-0.532,0.528 -1.182,0.803 -1.95,0.825c-0.354,0.012 -0.666,0.137 -0.938,0.375c-0.271,0.269 -0.434,0.581 -0.487,0.938c-0.034,0.4 -0.084,0.788 -0.15,1.162c-0.006,0.12 -0.019,0.233 -0.038,0.338c-0.035,0.154 -0.072,0.304 -0.112,0.45l0.037,-0.038c-0.288,1.367 -1.163,2.042 -2.625,2.025l-24.525,0c-0.979,-0.001 -1.692,-0.313 -2.137,-0.937c-0.115,-0.234 -0.228,-0.521 -0.338,-0.863c-0.034,-0.142 -0.059,-0.304 -0.075,-0.487c-0.005,-0.025 -0.017,-0.063 -0.037,-0.113c-0.076,-0.514 -0.151,-1.039 -0.225,-1.575c-0.047,-0.355 -0.209,-0.655 -0.488,-0.9c-0.285,-0.248 -0.622,-0.373 -1.012,-0.375l-0.15,0c-0.791,0.005 -1.466,-0.27 -2.025,-0.825c-0.038,-0.019 -0.075,-0.044 -0.113,-0.075c-0.496,-0.4 -0.746,-0.912 -0.75,-1.537l0,-0.15c0.019,-0.612 0.282,-1.162 0.788,-1.65c0.013,0.001 0.026,-0.012 0.037,-0.038c0.534,-0.422 1.159,-0.647 1.875,-0.675c0.4,-0.018 0.738,-0.168 1.013,-0.45c0.276,-0.282 0.414,-0.62 0.412,-1.012c0.02,-0.225 0.032,-0.45 0.038,-0.675l0,-0.038l0,-0.075c0.022,-0.456 0.047,-0.919 0.075,-1.387c0.021,-0.311 -0.054,-0.611 -0.225,-0.9c-0.175,-0.257 -0.413,-0.445 -0.713,-0.563c-0.163,-0.095 -0.25,-0.257 -0.262,-0.487l0,-0.3l0,-9.563Z" style="fill-opacity:0.2;fill-rule:nonzero;"/></svg>