<?xml version="1.0" encoding="UTF-8" standalone="no"?><!DOCTYPE svg PUBLIC "-//W3C//DTD SVG 1.1//EN" "http://www.w3.org/Graphics/SVG/1.1/DTD/svg11.dtd"><svg width="100%" height="100%" viewBox="0 0 108 61" version="1.1" xmlns="http://www.w3.org/2000/svg" xmlns:xlink="http://www.w3.org/1999/xlink" xml:space="preserve" xmlns:serif="http://www.serif.com/" style="fill-rule:evenodd;clip-rule:evenodd;stroke-linejoin:round;stroke-miterlimit:2;"><path d="M61.425,1.275l-15.6,0c-2.775,0 -5.175,0.975 -7.05,2.85c-2.025,2.025 -2.925,4.35 -2.925,7.125l0,8.625c0,2.776 0.9,5.1 2.925,7.049c1.875,1.951 4.275,2.925 7.05,2.925l15.6,0c2.774,0 5.1,-0.975 6.975,-2.925c2.025,-1.95 2.924,-4.274 2.924,-7.049l0,-8.625c0,-2.775 -0.899,-5.1 -2.924,-7.125c-1.875,-1.875 -4.201,-2.85 -6.975,-2.85Z" style="fill:#ccc;fill-rule:nonzero;"/><path d="M60.15,0l-12.6,0c-2.175,0 -4.125,0.825 -5.625,2.4c-1.575,1.5 -2.325,3.45 -2.325,5.625l0,6.975c0,2.25 0.75,4.2 2.325,5.7c1.5,1.576 3.45,2.325 5.625,2.325l12.6,0c2.174,0 4.125,-0.75 5.625,-2.325c1.65,-1.5 2.4,-3.45 2.4,-5.7l0,-6.975c0,-2.175 -0.75,-4.125 -2.4,-5.625c-1.5,-1.575 -3.451,-2.4 -5.625,-2.4Z" style="fill:#fff;fill-rule:nonzero;"/><path d="M50.55,17.55l5.625,0l0,-7.275l3.6,0l-6.45,-6.375l-6.3,6.375l3.525,0l0,7.275Z" style="fill:#333;fill-rule:nonzero;"/><path d="M61.424,31.501l-15.601,0c-2.774,0 -5.174,0.899 -7.049,2.923c-2.025,1.952 -2.924,4.276 -2.924,6.976l0,8.7c0,2.776 0.899,5.101 2.924,7.05c1.875,1.95 4.275,2.925 7.049,2.925l15.601,0c2.775,0 5.1,-0.976 6.975,-2.925c2.025,-1.95 2.925,-4.274 2.925,-7.05l0,-8.7c0,-2.7 -0.9,-5.024 -2.925,-6.976c-1.875,-2.024 -4.201,-2.923 -6.975,-2.923Z" style="fill:#ccc;fill-rule:nonzero;"/><path d="M60.149,30.225l-12.6,0c-2.175,0 -4.125,0.825 -5.625,2.401c-1.575,1.575 -2.325,3.45 -2.325,5.625l0,6.974c0,2.25 0.75,4.2 2.325,5.7c1.5,1.576 3.45,2.326 5.625,2.326l12.6,0c2.174,0 4.125,-0.75 5.625,-2.326c1.65,-1.5 2.4,-3.45 2.4,-5.7l0,-6.974c0,-2.175 -0.75,-4.05 -2.4,-5.625c-1.5,-1.577 -3.451,-2.401 -5.625,-2.401Z" style="fill:#fff;fill-rule:nonzero;"/><path d="M56.362,35.025l-5.625,0l0,7.351l-3.525,0l6.375,6.298l6.375,-6.298l-3.6,0l0,-7.351Z" style="fill:#333;fill-rule:nonzero;"/><path d="M25.575,31.501l-15.6,0c-2.7,0 -5.1,0.899 -7.05,2.923c-1.95,1.952 -2.925,4.276 -2.925,6.976l0,8.7c0,2.776 0.975,5.101 2.925,7.05c1.95,1.949 4.35,2.925 7.05,2.925l15.6,0c2.775,0 5.175,-0.976 7.05,-2.925c1.95,-1.95 2.925,-4.274 2.925,-7.05l0,-8.7c0,-2.7 -0.975,-5.024 -2.925,-6.976c-1.875,-2.024 -4.275,-2.923 -7.05,-2.923Z" style="fill:#ccc;fill-rule:nonzero;"/><path d="M24.3,30.225l-12.525,0c-2.25,0 -4.125,0.826 -5.7,2.401c-1.575,1.575 -2.325,3.45 -2.325,5.625l0,6.974c0,2.25 0.75,4.201 2.325,5.701c1.575,1.575 3.45,2.325 5.7,2.325l12.525,0c2.25,0 4.125,-0.75 5.7,-2.325c1.5,-1.5 2.325,-3.451 2.325,-5.701l0,-6.974c0,-2.175 -0.825,-4.05 -2.325,-5.625c-1.575,-1.577 -3.45,-2.401 -5.7,-2.401Z" style="fill:#fff;fill-rule:nonzero;"/><path d="M24.6,44.174l0,-5.625l-7.275,0l0,-3.599l-6.375,6.45l6.375,6.3l0,-3.526l7.275,0Z" style="fill:#333;fill-rule:nonzero;"/><path d="M97.273,31.501l-15.6,0c-2.774,0 -5.1,0.899 -7.05,2.923c-1.95,1.952 -2.923,4.276 -2.923,6.976l0,8.7c0,2.776 0.975,5.101 2.923,7.05c1.952,1.95 4.275,2.925 7.05,2.925l15.6,0c2.775,0 5.175,-0.976 7.05,-2.925c1.95,-1.95 2.924,-4.274 2.924,-7.05l0,-8.7c0,-2.7 -0.975,-5.024 -2.924,-6.976c-1.875,-2.024 -4.275,-2.923 -7.05,-2.923Z" style="fill:#ccc;fill-rule:nonzero;"/><path d="M96.073,30.225l-12.6,0c-2.175,0 -4.125,0.826 -5.701,2.401c-1.575,1.575 -2.325,3.45 -2.325,5.625l0,6.974c0,2.25 0.75,4.201 2.325,5.701c1.576,1.575 3.525,2.325 5.701,2.325l12.6,0c2.174,0 4.049,-0.75 5.625,-2.325c1.575,-1.5 2.325,-3.451 2.325,-5.701l0,-6.974c0,-2.175 -0.75,-4.05 -2.325,-5.625c-1.575,-1.577 -3.45,-2.401 -5.625,-2.401Z" style="fill:#fff;fill-rule:nonzero;"/><path d="M83.624,38.626l0,5.548l7.274,0l0,3.601l6.375,-6.375l-6.375,-6.375l0,3.601l-7.274,0Z" style="fill:#333;fill-rule:nonzero;"/></svg>