<?xml version="1.0" encoding="UTF-8" standalone="no"?><!DOCTYPE svg PUBLIC "-//W3C//DTD SVG 1.1//EN" "http://www.w3.org/Graphics/SVG/1.1/DTD/svg11.dtd"><svg width="100%" height="100%" viewBox="0 0 108 61" version="1.1" xmlns="http://www.w3.org/2000/svg" xmlns:xlink="http://www.w3.org/1999/xlink" xml:space="preserve" xmlns:serif="http://www.serif.com/" style="fill-rule:evenodd;clip-rule:evenodd;stroke-linejoin:round;stroke-miterlimit:2;"><path d="M61.424,1.276l-15.6,0c-2.775,0 -5.175,0.899 -7.05,2.923c-2.025,1.952 -2.924,4.276 -2.924,6.976l0,8.7c0,2.776 0.899,5.101 2.924,7.05c1.875,1.95 4.275,2.925 7.05,2.925l15.6,0c2.775,0 5.1,-0.976 6.975,-2.925c2.025,-1.95 2.925,-4.274 2.925,-7.05l0,-8.7c0,-2.7 -0.9,-5.024 -2.925,-6.976c-1.876,-2.023 -4.2,-2.923 -6.975,-2.923Z" style="fill:#ccc;fill-rule:nonzero;"/><path d="M60.149,0l-12.6,0c-2.176,0 -4.125,0.826 -5.625,2.401c-1.575,1.575 -2.325,3.45 -2.325,5.625l0,6.974c0,2.25 0.75,4.201 2.325,5.701c1.5,1.575 3.449,2.325 5.625,2.325l12.599,0c2.175,0 4.126,-0.75 5.626,-2.325c1.65,-1.5 2.4,-3.451 2.4,-5.701l-0.001,-6.974c0.001,-2.175 -0.749,-4.05 -2.4,-5.625c-1.499,-1.576 -3.449,-2.401 -5.624,-2.401Z" style="fill:#fff;fill-rule:nonzero;"/><path d="M58.61,19.365l-9.876,0l0,-15.856l9.876,0l0,2.761l-6.743,0l0,3.42l6.106,0l0,2.761l-6.106,0l0,4.152l6.743,0l0,2.762Z" style="fill-rule:nonzero;"/><path d="M61.424,31.501l-15.6,0c-2.775,0 -5.175,0.899 -7.05,2.923c-2.025,1.952 -2.924,4.276 -2.924,6.976l0,8.7c0,2.776 0.899,5.101 2.924,7.05c1.875,1.95 4.275,2.925 7.05,2.925l15.6,0c2.775,0 5.1,-0.976 6.975,-2.925c2.025,-1.95 2.925,-4.274 2.925,-7.05l0,-8.7c0,-2.7 -0.9,-5.024 -2.925,-6.976c-1.876,-2.023 -4.2,-2.923 -6.975,-2.923Z" style="fill:#ccc;fill-rule:nonzero;"/><path d="M60.149,30.225l-12.6,0c-2.176,0 -4.125,0.826 -5.625,2.401c-1.575,1.575 -2.325,3.45 -2.325,5.625l0,6.974c0,2.25 0.75,4.201 2.325,5.701c1.5,1.575 3.449,2.325 5.625,2.325l12.599,0c2.175,0 4.126,-0.75 5.626,-2.325c1.65,-1.5 2.4,-3.451 2.4,-5.701l-0.001,-6.974c0.001,-2.175 -0.749,-4.05 -2.4,-5.625c-1.499,-1.576 -3.449,-2.401 -5.624,-2.401Z" style="fill:#fff;fill-rule:nonzero;"/><path d="M51.537,36.559l0,10.206l0.85,0c1.232,0 2.11,-0.388 2.634,-1.163c0.524,-0.776 0.786,-2.094 0.786,-3.956c0,-1.848 -0.262,-3.158 -0.786,-3.93c-0.524,-0.771 -1.402,-1.157 -2.634,-1.157l-0.85,0Zm-3.133,-2.825l3.356,0c2.592,0 4.457,0.618 5.597,1.853c1.14,1.235 1.71,3.255 1.71,6.059c0,2.811 -0.57,4.837 -1.71,6.08c-1.14,1.242 -3.005,1.864 -5.597,1.864l-3.356,0l0,-15.856Z" style="fill-rule:nonzero;"/><path d="M97.274,31.501l-15.6,0c-2.775,0 -5.175,0.899 -7.05,2.923c-2.025,1.952 -2.924,4.276 -2.924,6.976l0,8.7c0,2.776 0.899,5.101 2.924,7.05c1.875,1.95 4.275,2.925 7.049,2.925l15.601,0c2.774,0 5.1,-0.976 6.975,-2.925c2.025,-1.95 2.924,-4.274 2.924,-7.05l0,-8.7c0,-2.7 -0.899,-5.024 -2.924,-6.976c-1.876,-2.023 -4.201,-2.923 -6.975,-2.923Z" style="fill:#ccc;fill-rule:nonzero;"/><path d="M95.998,30.225l-12.6,0c-2.175,0 -4.125,0.826 -5.625,2.401c-1.575,1.575 -2.325,3.45 -2.325,5.625l0,6.974c0,2.25 0.75,4.201 2.325,5.701c1.5,1.575 3.45,2.325 5.625,2.325l12.6,0c2.175,0 4.125,-0.75 5.625,-2.325c1.65,-1.5 2.4,-3.451 2.4,-5.701l0,-6.974c0,-2.175 -0.75,-4.05 -2.4,-5.625c-1.5,-1.576 -3.45,-2.401 -5.625,-2.401Z" style="fill:#fff;fill-rule:nonzero;"/><path d="M94.609,36.495l-6.744,0l0,3.42l6.139,0l0,2.761l-6.139,0l0,6.914l-3.133,0l0,-15.856l9.877,0l0,2.761Z" style="fill-rule:nonzero;"/><path d="M25.574,31.501l-15.601,0c-2.774,0 -5.174,0.899 -7.049,2.923c-2.025,1.952 -2.924,4.276 -2.924,6.976l0,8.7c0,2.776 0.899,5.101 2.924,7.05c1.875,1.95 4.275,2.925 7.05,2.925l15.6,0c2.775,0 5.1,-0.976 6.975,-2.925c2.025,-1.95 2.925,-4.274 2.925,-7.05l0,-8.7c0,-2.7 -0.9,-5.024 -2.925,-6.976c-1.876,-2.023 -4.2,-2.923 -6.975,-2.923Z" style="fill:#ccc;fill-rule:nonzero;"/><path d="M24.298,30.225l-12.6,0c-2.175,0 -4.125,0.826 -5.625,2.401c-1.575,1.575 -2.325,3.45 -2.325,5.625l0,6.974c0,2.25 0.75,4.201 2.325,5.701c1.5,1.575 3.45,2.325 5.625,2.325l12.6,0c2.175,0 4.125,-0.75 5.625,-2.325c1.65,-1.5 2.4,-3.451 2.4,-5.701l0,-6.974c0,-2.175 -0.75,-4.05 -2.4,-5.625c-1.5,-1.576 -3.45,-2.401 -5.625,-2.401Z" style="fill:#fff;fill-rule:nonzero;"/><path d="M16.516,42.633c-1.579,-0.601 -2.648,-1.233 -3.207,-1.895c-0.56,-0.662 -0.839,-1.553 -0.839,-2.671c0,-1.437 0.46,-2.567 1.38,-3.388c0.921,-0.821 2.184,-1.232 3.792,-1.232c0.729,0 1.458,0.083 2.187,0.25c0.73,0.166 1.452,0.412 2.167,0.738l0,3.058c-0.673,-0.474 -1.356,-0.835 -2.05,-1.083c-0.694,-0.248 -1.381,-0.372 -2.06,-0.372c-0.758,0 -1.338,0.153 -1.742,0.457c-0.403,0.304 -0.605,0.74 -0.605,1.306c0,0.439 0.147,0.802 0.44,1.089c0.294,0.287 0.908,0.603 1.843,0.95l1.349,0.51c1.274,0.467 2.212,1.087 2.814,1.859c0.602,0.771 0.903,1.745 0.903,2.92c0,1.6 -0.473,2.795 -1.418,3.584c-0.945,0.79 -2.374,1.185 -4.285,1.185c-0.786,0 -1.574,-0.094 -2.363,-0.282c-0.79,-0.187 -1.552,-0.465 -2.289,-0.834l0,-3.239c0.836,0.595 1.645,1.038 2.427,1.328c0.782,0.29 1.556,0.435 2.32,0.435c0.772,0 1.37,-0.175 1.795,-0.525c0.425,-0.351 0.637,-0.841 0.637,-1.471c0,-0.475 -0.141,-0.891 -0.424,-1.248c-0.284,-0.358 -0.694,-0.639 -1.232,-0.844l-1.54,-0.585Z" style="fill-rule:nonzero;"/></svg>