<?xml version="1.0" encoding="UTF-8" standalone="no"?><!DOCTYPE svg PUBLIC "-//W3C//DTD SVG 1.1//EN" "http://www.w3.org/Graphics/SVG/1.1/DTD/svg11.dtd"><svg width="100%" height="100%" viewBox="0 0 144 61" version="1.1" xmlns="http://www.w3.org/2000/svg" xmlns:xlink="http://www.w3.org/1999/xlink" xml:space="preserve" xmlns:serif="http://www.serif.com/" style="fill-rule:evenodd;clip-rule:evenodd;stroke-linejoin:round;stroke-miterlimit:2;"><path d="M25.574,16.388l-15.601,0c-2.774,0 -5.174,0.899 -7.049,2.924c-2.025,1.951 -2.924,4.275 -2.924,6.976l0,8.699c0,2.776 0.899,5.101 2.924,7.05c1.875,1.95 4.275,2.925 7.049,2.925l15.601,0c2.774,0 5.1,-0.975 6.975,-2.925c2.025,-1.95 2.924,-4.274 2.924,-7.05l0,-8.7c0,-2.7 -0.899,-5.024 -2.924,-6.975c-1.876,-2.024 -4.201,-2.924 -6.975,-2.924Z" style="fill:#ccc;fill-rule:nonzero;"/><path d="M24.298,15.112l-12.6,0c-2.175,0 -4.125,0.826 -5.625,2.401c-1.575,1.575 -2.325,3.45 -2.325,5.625l0,6.974c0,2.25 0.75,4.201 2.325,5.701c1.5,1.576 3.45,2.326 5.625,2.326l12.6,0c2.175,0 4.125,-0.75 5.625,-2.326c1.65,-1.5 2.4,-3.451 2.4,-5.701l0,-6.974c0,-2.175 -0.75,-4.05 -2.4,-5.625c-1.5,-1.576 -3.45,-2.401 -5.625,-2.401Z" style="fill:#fff;fill-rule:nonzero;"/><path d="M12.554,18.621l3.133,0l0,6.043l3.919,0l0,-6.043l3.133,0l0,15.856l-3.133,0l0,-7.052l-3.919,0l0,7.052l-3.133,0l0,-15.856Z" style="fill-rule:nonzero;"/><path d="M97.274,1.276l-15.601,0c-2.774,0 -5.174,0.899 -7.049,2.923c-2.025,1.952 -2.924,4.276 -2.924,6.976l0,8.7c0,2.776 0.899,5.101 2.924,7.05c1.875,1.95 4.275,2.925 7.049,2.925l15.601,0c2.774,0 5.1,-0.976 6.975,-2.925c2.025,-1.95 2.924,-4.274 2.924,-7.05l0,-8.7c0,-2.7 -0.899,-5.024 -2.924,-6.976c-1.876,-2.023 -4.201,-2.923 -6.975,-2.923Z" style="fill:#ccc;fill-rule:nonzero;"/><path d="M95.998,0l-12.6,0c-2.175,0 -4.125,0.826 -5.625,2.401c-1.575,1.575 -2.325,3.45 -2.325,5.625l0,6.974c0,2.25 0.75,4.201 2.325,5.701c1.5,1.575 3.45,2.325 5.625,2.325l12.6,0c2.175,0 4.125,-0.75 5.625,-2.325c1.65,-1.5 2.4,-3.451 2.4,-5.701l0,-6.974c0,-2.175 -0.75,-4.05 -2.4,-5.625c-1.5,-1.576 -3.45,-2.401 -5.625,-2.401Z" style="fill:#fff;fill-rule:nonzero;"/><path d="M84.042,3.509l3.133,0l0,6.266l4.907,-6.266l3.547,0l-5.002,6.244l5.182,9.612l-3.483,0l-3.76,-7.137l-1.391,1.763l0,5.374l-3.133,0l0,-15.856Z" style="fill-rule:nonzero;"/><path d="M133.124,16.388l-15.601,0c-2.774,0 -5.174,0.899 -7.049,2.924c-2.025,1.951 -2.924,4.275 -2.924,6.976l0,8.699c0,2.776 0.899,5.101 2.924,7.05c1.875,1.95 4.275,2.925 7.049,2.925l15.601,0c2.774,0 5.1,-0.975 6.975,-2.925c2.025,-1.95 2.924,-4.274 2.924,-7.05l0,-8.7c0,-2.7 -0.899,-5.024 -2.924,-6.975c-1.876,-2.024 -4.201,-2.924 -6.975,-2.924Z" style="fill:#ccc;fill-rule:nonzero;"/><path d="M131.848,15.112l-12.6,0c-2.175,0 -4.125,0.826 -5.625,2.401c-1.575,1.575 -2.325,3.45 -2.325,5.625l0,6.974c0,2.25 0.75,4.201 2.325,5.701c1.5,1.576 3.45,2.326 5.625,2.326l12.6,0c2.175,0 4.125,-0.75 5.625,-2.326c1.65,-1.5 2.4,-3.451 2.4,-5.701l0,-6.974c0,-2.175 -0.75,-4.05 -2.4,-5.625c-1.5,-1.576 -3.45,-2.401 -5.625,-2.401Z" style="fill:#fff;fill-rule:nonzero;"/><path d="M121.039,34.477l0,-15.856l3.133,0l0,13.095l6.701,0l0,2.761l-9.834,0Z" style="fill-rule:nonzero;"/><path d="M61.424,31.313l-15.601,0c-2.774,0 -5.174,0.9 -7.049,2.924c-2.025,1.951 -2.924,4.275 -2.924,6.976l0,8.699c0,2.776 0.899,5.101 2.924,7.05c1.875,1.95 4.275,2.925 7.049,2.925l15.601,0c2.774,0 5.1,-0.975 6.975,-2.925c2.025,-1.95 2.924,-4.274 2.924,-7.05l0,-8.7c0,-2.7 -0.899,-5.024 -2.924,-6.975c-1.876,-2.024 -4.201,-2.924 -6.975,-2.924Z" style="fill:#ccc;fill-rule:nonzero;"/><path d="M60.148,30.037l-12.6,0c-2.175,0 -4.125,0.826 -5.625,2.401c-1.575,1.575 -2.325,3.45 -2.325,5.625l0,6.974c0,2.25 0.75,4.201 2.325,5.701c1.5,1.576 3.45,2.326 5.625,2.326l12.6,0c2.175,0 4.125,-0.75 5.625,-2.326c1.65,-1.5 2.4,-3.451 2.4,-5.701l0,-6.974c0,-2.175 -0.75,-4.05 -2.4,-5.625c-1.5,-1.576 -3.45,-2.401 -5.625,-2.401Z" style="fill:#fff;fill-rule:nonzero;"/><path d="M48.107,48.616l0,-3.632c0.609,0.623 1.259,1.098 1.949,1.423c0.69,0.326 1.386,0.489 2.087,0.489c0.821,0 1.423,-0.206 1.805,-0.616c0.383,-0.411 0.574,-1.066 0.574,-1.965l0,-8.008l-3.834,0l0,-2.761l6.967,0l0,10.769c0,1.933 -0.406,3.315 -1.216,4.147c-0.811,0.832 -2.147,1.248 -4.009,1.248c-0.673,0 -1.376,-0.092 -2.109,-0.276c-0.732,-0.184 -1.47,-0.457 -2.214,-0.818Z" style="fill-rule:nonzero;"/></svg>