<?xml version="1.0" encoding="UTF-8" standalone="no"?><!DOCTYPE svg PUBLIC "-//W3C//DTD SVG 1.1//EN" "http://www.w3.org/Graphics/SVG/1.1/DTD/svg11.dtd"><svg width="100%" height="100%" viewBox="0 0 36 30" version="1.1" xmlns="http://www.w3.org/2000/svg" xmlns:xlink="http://www.w3.org/1999/xlink" xml:space="preserve" xmlns:serif="http://www.serif.com/" style="fill-rule:evenodd;clip-rule:evenodd;stroke-linejoin:round;stroke-miterlimit:2;"><path d="M25.574,1.276l-15.601,0c-2.774,0 -5.174,0.899 -7.049,2.923c-2.025,1.952 -2.924,4.276 -2.924,6.976l0,8.7c0,2.776 0.899,5.101 2.924,7.05c1.875,1.95 4.275,2.925 7.05,2.925l15.6,0c2.775,0 5.1,-0.976 6.975,-2.925c2.025,-1.95 2.925,-4.274 2.925,-7.05l0,-8.7c0,-2.7 -0.9,-5.024 -2.925,-6.976c-1.876,-2.023 -4.2,-2.923 -6.975,-2.923Z" style="fill:#ccc;fill-rule:nonzero;"/><path d="M24.298,0l-12.6,0c-2.175,0 -4.125,0.826 -5.625,2.401c-1.575,1.575 -2.325,3.45 -2.325,5.625l0,6.974c0,2.25 0.75,4.201 2.325,5.701c1.5,1.575 3.45,2.325 5.625,2.325l12.6,0c2.175,0 4.125,-0.75 5.625,-2.325c1.65,-1.5 2.4,-3.451 2.4,-5.701l0,-6.974c0,-2.175 -0.75,-4.05 -2.4,-5.625c-1.5,-1.576 -3.45,-2.401 -5.625,-2.401Z" style="fill:#fff;fill-rule:nonzero;"/><path d="M19.67,11.877c0.311,0.064 0.582,0.211 0.812,0.441c0.231,0.23 0.512,0.678 0.845,1.344l2.867,5.703l-3.441,0l-1.911,-4.004c-0.057,-0.113 -0.131,-0.269 -0.223,-0.467c-0.56,-1.197 -1.218,-1.795 -1.976,-1.795l-0.998,0l0,6.266l-3.133,0l0,-15.856l4.524,0c2.039,0 3.503,0.361 4.392,1.083c0.888,0.722 1.332,1.897 1.332,3.526c0,1.09 -0.265,1.958 -0.796,2.602c-0.531,0.644 -1.296,1.03 -2.294,1.157Zm-4.025,-5.734l0,4.322l1.476,0c0.857,0 1.471,-0.168 1.843,-0.505c0.371,-0.336 0.557,-0.89 0.557,-1.662c0,-0.771 -0.184,-1.324 -0.552,-1.656c-0.368,-0.333 -0.984,-0.499 -1.848,-0.499l-1.476,0Z" style="fill-rule:nonzero;"/></svg>