<?xml version="1.0" encoding="UTF-8" standalone="no"?><!DOCTYPE svg PUBLIC "-//W3C//DTD SVG 1.1//EN" "http://www.w3.org/Graphics/SVG/1.1/DTD/svg11.dtd"><svg width="100%" height="100%" viewBox="0 0 36 30" version="1.1" xmlns="http://www.w3.org/2000/svg" xmlns:xlink="http://www.w3.org/1999/xlink" xml:space="preserve" xmlns:serif="http://www.serif.com/" style="fill-rule:evenodd;clip-rule:evenodd;stroke-linejoin:round;stroke-miterlimit:2;"><path d="M25.574,1.276l-15.601,0c-2.774,0 -5.174,0.899 -7.049,2.923c-2.025,1.952 -2.924,4.276 -2.924,6.976l0,8.7c0,2.776 0.899,5.101 2.924,7.05c1.875,1.95 4.275,2.925 7.05,2.925l15.6,0c2.775,0 5.1,-0.976 6.975,-2.925c2.025,-1.95 2.925,-4.274 2.925,-7.05l0,-8.7c0,-2.7 -0.9,-5.024 -2.925,-6.976c-1.876,-2.023 -4.2,-2.923 -6.975,-2.923Z" style="fill:#ccc;fill-rule:nonzero;"/><path d="M24.298,0l-12.6,0c-2.175,0 -4.125,0.826 -5.625,2.401c-1.575,1.575 -2.325,3.45 -2.325,5.625l0,6.974c0,2.25 0.75,4.201 2.325,5.701c1.5,1.575 3.45,2.325 5.625,2.325l12.6,0c2.175,0 4.125,-0.75 5.625,-2.325c1.65,-1.5 2.4,-3.451 2.4,-5.701l0,-6.974c0,-2.175 -0.75,-4.05 -2.4,-5.625c-1.5,-1.576 -3.45,-2.401 -5.625,-2.401Z" style="fill:#fff;fill-rule:nonzero;"/><path d="M12.225,13.513l0,-10.004l3.133,0l0,10.79c0,0.793 0.202,1.414 0.606,1.864c0.403,0.449 0.962,0.674 1.678,0.674c0.715,0 1.274,-0.225 1.677,-0.674c0.404,-0.45 0.606,-1.071 0.606,-1.864l0,-10.79l3.133,0l0,10.004c0,2.152 -0.429,3.717 -1.285,4.694c-0.857,0.977 -2.234,1.466 -4.131,1.466c-1.891,0 -3.266,-0.489 -4.126,-1.466c-0.861,-0.977 -1.291,-2.542 -1.291,-4.694Z" style="fill-rule:nonzero;"/></svg>