<?xml version="1.0" encoding="UTF-8" standalone="no"?><!DOCTYPE svg PUBLIC "-//W3C//DTD SVG 1.1//EN" "http://www.w3.org/Graphics/SVG/1.1/DTD/svg11.dtd"><svg width="100%" height="100%" viewBox="0 0 48 48" version="1.1" xmlns="http://www.w3.org/2000/svg" xmlns:xlink="http://www.w3.org/1999/xlink" xml:space="preserve" xmlns:serif="http://www.serif.com/" style="fill-rule:evenodd;clip-rule:evenodd;stroke-linejoin:round;stroke-miterlimit:2;"><path id="Layer0_75_MEMBER_0_FILL" d="M21.262,40.533c0,-1.05 -0.462,-1.938 -1.387,-2.663c-0.875,-0.75 -1.95,-1.125 -3.225,-1.125c-1.275,0 -2.375,0.375 -3.3,1.125c-0.9,0.725 -1.35,1.613 -1.35,2.663c0,0.075 0.013,0.125 0.037,0.15l0,0.187c0.051,0.45 0.438,0.85 1.163,1.2c0.05,0.025 0.1,0.05 0.15,0.075c0.25,0.1 0.525,0.2 0.825,0.3c0.75,0.2 1.575,0.3 2.475,0.3c0.9,0 1.712,-0.1 2.438,-0.3c0.274,-0.1 0.537,-0.2 0.787,-0.3c0.45,-0.225 0.8,-0.45 1.05,-0.675c0.175,-0.2 0.288,-0.4 0.337,-0.6l0,-0.337Z" style="fill:#333;fill-rule:nonzero;"/><path id="Layer0_75_MEMBER_1_FILL" d="M28.125,37.87c-0.925,0.725 -1.387,1.613 -1.387,2.663c0,0.075 0.012,0.125 0.037,0.15l0,0.187c0.05,0.45 0.438,0.85 1.163,1.2c0.049,0.025 0.112,0.05 0.187,0.075c0.25,0.1 0.513,0.2 0.787,0.3c0.75,0.2 1.575,0.3 2.475,0.3c0.925,0 1.738,-0.1 2.438,-0.3c0.275,-0.1 0.55,-0.2 0.825,-0.3c0.425,-0.225 0.762,-0.45 1.012,-0.675c0.175,-0.2 0.288,-0.4 0.338,-0.6l0,-0.337c0,-1.05 -0.45,-1.938 -1.35,-2.663c-0.9,-0.75 -1.988,-1.125 -3.263,-1.125c-1.275,0 -2.362,0.375 -3.262,1.125Z" style="fill:#333;fill-rule:nonzero;"/><path d="M27.975,36.258c0.1,0.125 0.212,0.262 0.337,0.412c0.701,0.95 1.201,1.975 1.5,3.075l3.375,0c1.701,0 2.726,-0.737 3.075,-2.212c0.026,-0.1 0.05,-0.2 0.076,-0.3c0,-0.075 0.012,-0.163 0.037,-0.263c0.025,-0.225 0.063,-0.462 0.113,-0.712l0,-0.038c0.249,-3.775 -0.55,-6.487 -2.4,-8.137l-20.138,0c-1.825,1.775 -2.6,4.5 -2.325,8.175c0.025,0.325 0.075,0.65 0.15,0.975c0.025,0.225 0.063,0.412 0.112,0.562c0.076,0.275 0.175,0.513 0.3,0.713c0.5,0.825 1.375,1.237 2.625,1.237l3.375,0c0.275,-1.1 0.776,-2.125 1.5,-3.075c0.125,-0.15 0.25,-0.287 0.375,-0.412c1.1,-1.2 2.413,-1.8 3.938,-1.8c1.525,0 2.85,0.6 3.975,1.8Z" style="fill:#e74c3c;fill-rule:nonzero;"/><path d="M28.313,36.67c-0.125,-0.15 -0.238,-0.287 -0.338,-0.412c-1.125,-1.2 -2.45,-1.8 -3.975,-1.8c-1.525,0 -2.838,0.6 -3.937,1.8c-0.125,0.125 -0.25,0.262 -0.375,0.412c-0.725,0.95 -1.226,1.975 -1.5,3.075l1.162,0c0.1,-0.075 0.213,-0.162 0.338,-0.262c1.175,-0.7 2.612,-1.05 4.312,-1.05c1.7,0 3.138,0.35 4.313,1.05c0.1,0.1 0.212,0.187 0.337,0.262l1.163,0c-0.3,-1.1 -0.8,-2.125 -1.5,-3.075Z" style="fill:#cd4335;fill-rule:nonzero;"/><path id="Layer0_75_MEMBER_3_FILL" d="M36.412,20.245c-0.925,0 -1.712,0.275 -2.362,0.825c-0.625,0.6 -0.95,1.3 -0.975,2.1l0,0.113c0.025,0.825 0.35,1.5 0.975,2.025c0.65,0.625 1.438,0.937 2.362,0.937c0.926,0 1.713,-0.312 2.363,-0.937c0.65,-0.55 0.975,-1.225 0.975,-2.025c0,-0.875 -0.325,-1.613 -0.975,-2.213c-0.65,-0.55 -1.437,-0.825 -2.363,-0.825m-24.862,0c-0.9,0 -1.675,0.275 -2.325,0.825c-0.65,0.6 -0.975,1.3 -0.975,2.1l0,0.113c0,0.825 0.325,1.5 0.975,2.025c0.65,0.625 1.425,0.937 2.325,0.937c0.925,0 1.713,-0.312 2.362,-0.937c0.651,-0.55 0.975,-1.225 0.975,-2.025c0,-0.875 -0.324,-1.613 -0.975,-2.213c-0.649,-0.55 -1.437,-0.825 -2.362,-0.825Z" style="fill:#d7bd93;fill-rule:nonzero;"/><path d="M28.313,31.833c0.7,-0.475 1.2,-1.013 1.5,-1.613l-11.625,0c0.274,0.6 0.775,1.138 1.5,1.613c1.174,0.775 2.612,1.162 4.312,1.162c1.7,0 3.138,-0.387 4.313,-1.162Z" style="fill:#2ecc71;fill-rule:nonzero;"/><path d="M33.262,12.82c0.326,4 1.488,7.05 3.488,9.15c0.025,-0.95 0.013,-1.9 -0.037,-2.85c-0.101,-1.45 -0.238,-2.912 -0.413,-4.387c-0.125,-0.8 -0.4,-1.438 -0.825,-1.913c-0.525,-0.55 -1.288,-0.825 -2.288,-0.825c0.026,0.3 0.05,0.575 0.075,0.825m-21.975,9.15c2.375,-1.925 3.563,-4.975 3.563,-9.15c-0.025,-0.25 -0.037,-0.525 -0.037,-0.825c-0.951,0 -1.688,0.275 -2.213,0.825c-0.45,0.475 -0.725,1.138 -0.825,1.988c-0.25,1.6 -0.412,3.2 -0.488,4.8c-0.024,0.775 -0.024,1.562 0,2.362Z" style="fill:#694c39;fill-rule:nonzero;"/><path d="M14.85,12.82c0,4.175 -1.188,7.225 -3.563,9.15c0.026,1.825 0.188,3.65 0.488,5.475c0.025,0.225 0.063,0.425 0.112,0.6c0.076,0.325 0.176,0.6 0.301,0.825c0.5,0.9 1.375,1.35 2.625,1.35l18.375,0c1.7,0 2.725,-0.812 3.074,-2.437c0.026,-0.125 0.05,-0.238 0.076,-0.338c0,-0.1 0.012,-0.2 0.037,-0.3c0.2,-1.55 0.325,-3.125 0.375,-4.725l0,-0.45c-2,-2.1 -3.162,-5.15 -3.488,-9.15c-0.025,-0.25 -0.049,-0.525 -0.075,-0.825l-18.374,0c0,0.3 0.012,0.575 0.037,0.825Z" style="fill:#ffe0b1;fill-rule:nonzero;"/><path id="Layer0_75_MEMBER_5_MEMBER_0_FILL" d="M30.75,20.245c-0.4,0 -0.75,0.225 -1.05,0.675c-0.3,0.4 -0.45,0.925 -0.45,1.575c0,0.65 0.15,1.175 0.45,1.575c0.3,0.45 0.65,0.675 1.05,0.675c0.45,0 0.8,-0.225 1.05,-0.675c0.3,-0.4 0.45,-0.925 0.45,-1.575c0,-0.65 -0.15,-1.175 -0.45,-1.575c-0.25,-0.45 -0.6,-0.675 -1.05,-0.675Z" style="fill:#694c39;fill-rule:nonzero;"/><path id="Layer0_75_MEMBER_5_MEMBER_1_FILL" d="M17.25,20.245c-0.4,0 -0.75,0.225 -1.05,0.675c-0.3,0.4 -0.45,0.925 -0.45,1.575c0,0.65 0.15,1.175 0.45,1.575c0.3,0.45 0.65,0.675 1.05,0.675c0.425,0 0.775,-0.225 1.05,-0.675c0.3,-0.4 0.45,-0.925 0.45,-1.575c0,-0.65 -0.15,-1.175 -0.45,-1.575c-0.275,-0.45 -0.625,-0.675 -1.05,-0.675Z" style="fill:#694c39;fill-rule:nonzero;"/><path id="Layer0_75_MEMBER_6_FILL" d="M18.75,27.97c0,0.375 0.513,0.675 1.537,0.9c1.051,0.25 2.288,0.375 3.713,0.375c1.45,0 2.7,-0.125 3.75,-0.375c1,-0.225 1.5,-0.525 1.5,-0.9c0,-0.875 -0.5,-1.625 -1.5,-2.25c-1.05,-0.65 -2.3,-0.975 -3.75,-0.975c-1.425,0 -2.662,0.325 -3.713,0.975c-0.925,0.625 -1.437,1.375 -1.537,2.25Z" style="fill:#694c39;fill-rule:nonzero;"/><path d="M10.5,16.908c-0.025,1.225 0.638,1.837 1.988,1.837l23.024,0c1.325,0 1.988,-0.612 1.988,-1.837l0,-1.763c-8.875,-1.025 -17.875,-1.025 -27,0l0,1.763Z" style="fill:#2ecc71;fill-rule:nonzero;"/><path d="M10.5,9.445l0,5.7c9.125,-1.025 18.125,-1.025 27,0l0,-5.7l-0.037,0c-0.276,-1.975 -1.6,-3.125 -3.975,-3.45c-6.326,-0.975 -12.638,-0.987 -18.938,-0.037c-2.425,0.35 -3.763,1.512 -4.013,3.487l-0.037,0Z" style="fill:#28b162;fill-rule:nonzero;"/><path id="Layer0_75_MEMBER_8_FILL" d="M21.75,25.42c0,0.225 0.225,0.425 0.675,0.6c0.45,0.15 0.987,0.225 1.612,0.225c0.6,0 1.125,-0.075 1.576,-0.225c0.424,-0.175 0.637,-0.375 0.637,-0.6c0,-0.575 -0.213,-1.075 -0.637,-1.5c-0.451,-0.45 -0.976,-0.675 -1.576,-0.675c-0.625,0 -1.162,0.225 -1.612,0.675c-0.4,0.425 -0.625,0.925 -0.675,1.5Z" style="fill:#d7bd93;fill-rule:nonzero;"/><path d="M15.75,32.47c-0.025,-0.025 -0.05,-0.037 -0.075,-0.037c-0.025,-0.025 -0.05,-0.05 -0.075,-0.075c-0.15,-0.075 -0.288,-0.138 -0.413,-0.188c-0.875,-0.425 -1.762,-0.512 -2.662,-0.262c-1.175,0.325 -2.05,0.975 -2.625,1.95c-0.25,0.425 -0.4,0.837 -0.45,1.237c-0.1,0.6 -0.063,1.238 0.112,1.913c0.25,0.925 0.763,1.662 1.538,2.212c0.125,0.075 0.262,0.15 0.412,0.225c0.05,0.05 0.1,0.088 0.15,0.113c0.575,0.3 1.238,0.225 1.988,-0.225c0.825,-0.45 1.512,-1.175 2.063,-2.175c0.574,-0.95 0.862,-1.913 0.862,-2.888c-0.025,-0.875 -0.3,-1.475 -0.825,-1.8Z" style="fill:#ffe0b1;fill-rule:nonzero;"/><path d="M12.338,29.245c-0.801,0.15 -1.476,0.513 -2.026,1.088c-0.875,0.85 -1.312,1.837 -1.312,2.962c0,0.65 0.15,1.25 0.45,1.8c0.05,-0.4 0.2,-0.812 0.45,-1.237c0.575,-0.975 1.45,-1.625 2.625,-1.95c0.9,-0.25 1.787,-0.163 2.662,0.262c0.125,0.05 0.263,0.113 0.413,0.188c-2.025,-1.4 -3.112,-2.438 -3.262,-3.113Z" style="fill:#2ecc71;fill-rule:nonzero;"/><path d="M38.55,35.095c-0.075,-0.4 -0.225,-0.812 -0.45,-1.237c-0.575,-0.975 -1.45,-1.625 -2.625,-1.95c-0.9,-0.25 -1.788,-0.163 -2.663,0.262c-0.124,0.05 -0.262,0.113 -0.412,0.188c-0.025,0.025 -0.05,0.05 -0.075,0.075c-0.025,0 -0.05,0.012 -0.075,0.037c-0.525,0.325 -0.8,0.925 -0.825,1.8c0,0.975 0.288,1.938 0.863,2.888c0.55,1 1.237,1.725 2.062,2.175c0.75,0.45 1.413,0.525 1.988,0.225c0.05,-0.025 0.1,-0.063 0.15,-0.113c0.15,-0.075 0.287,-0.15 0.412,-0.225c0.775,-0.55 1.288,-1.287 1.538,-2.212c0.175,-0.675 0.212,-1.313 0.112,-1.913Z" style="fill:#ffe0b1;fill-rule:nonzero;"/><path d="M37.688,30.333c-0.55,-0.575 -1.225,-0.938 -2.026,-1.088c-0.15,0.675 -1.237,1.713 -3.262,3.113c0.15,-0.075 0.288,-0.138 0.413,-0.188c0.875,-0.425 1.762,-0.512 2.662,-0.262c1.175,0.325 2.05,0.975 2.625,1.95c0.225,0.425 0.375,0.837 0.45,1.237c0.3,-0.55 0.45,-1.15 0.45,-1.8c0,-1.125 -0.438,-2.112 -1.313,-2.962Z" style="fill:#2ecc71;fill-rule:nonzero;"/><path id="Layer0_75_MEMBER_11_FILL" d="M23.963,9.745c-1.651,0 -3.075,0.475 -4.276,1.425c-1.024,0.875 -1.587,1.9 -1.687,3.075l12,0c-0.125,-1.175 -0.725,-2.2 -1.8,-3.075c-1.15,-0.95 -2.562,-1.425 -4.237,-1.425Z" style="fill:#fff;fill-rule:nonzero;"/></svg>