<?xml version="1.0" encoding="UTF-8" standalone="no"?><!DOCTYPE svg PUBLIC "-//W3C//DTD SVG 1.1//EN" "http://www.w3.org/Graphics/SVG/1.1/DTD/svg11.dtd"><svg width="100%" height="100%" viewBox="0 0 48 48" version="1.1" xmlns="http://www.w3.org/2000/svg" xmlns:xlink="http://www.w3.org/1999/xlink" xml:space="preserve" xmlns:serif="http://www.serif.com/" style="fill-rule:evenodd;clip-rule:evenodd;stroke-linejoin:round;stroke-miterlimit:2;"><path d="M45.525,37.65c-0.3,0.225 -0.813,0.687 -1.538,1.387c-0.675,0.725 -1.125,1.225 -1.349,1.5c-0.375,0.526 -0.551,0.976 -0.526,1.351c-0.025,0.4 0.151,0.85 0.526,1.349c0.224,0.3 0.674,0.813 1.349,1.538c0.725,0.7 1.238,1.15 1.538,1.35c0.5,0.375 0.95,0.55 1.35,0.525c0.325,0.025 0.7,-0.1 1.125,-0.375l0,-8.775c-0.425,-0.25 -0.8,-0.375 -1.125,-0.375c-0.4,0 -0.85,0.175 -1.35,0.525m2.475,-34.988c-0.025,0 -0.037,0.013 -0.037,0.038c-0.1,0.075 -0.175,0.163 -0.226,0.263c-0.025,0.025 -0.05,0.049 -0.075,0.074c-0.575,0.675 -0.874,1.288 -0.899,1.838c-0.075,0.575 0.137,1.237 0.637,1.987c0.125,0.226 0.312,0.501 0.563,0.826l0.037,0.037l0,-5.063m-43.875,44.476c-0.275,0.175 -0.65,0.462 -1.125,0.862l5.55,0c-0.225,-0.25 -0.412,-0.437 -0.563,-0.562c-0.699,-0.601 -1.324,-0.901 -1.875,-0.901c-0.574,-0.075 -1.237,0.126 -1.987,0.601m-1.013,-6.601c-0.199,-0.275 -0.65,-0.775 -1.349,-1.5c-0.75,-0.7 -1.263,-1.162 -1.538,-1.387c-0.075,-0.05 -0.15,-0.1 -0.225,-0.15l0,8.813c0.075,-0.051 0.15,-0.113 0.225,-0.188c0.275,-0.2 0.788,-0.65 1.538,-1.35c0.699,-0.75 1.15,-1.263 1.349,-1.538c0.375,-0.499 0.551,-0.949 0.526,-1.349c0.025,-0.375 -0.151,-0.825 -0.526,-1.351m30.038,-10.012c-0.325,0.35 -0.612,0.663 -0.863,0.938c-0.499,0.549 -0.862,0.975 -1.087,1.274c-0.55,0.725 -0.812,1.363 -0.788,1.913c-0.024,0.575 0.238,1.225 0.788,1.95c0.325,0.45 0.975,1.188 1.95,2.213c1.025,0.975 1.762,1.637 2.212,1.987c0.725,0.525 1.363,0.775 1.913,0.75c0.575,0.025 1.225,-0.225 1.95,-0.75c0.425,-0.325 1.163,-0.987 2.212,-1.987c1,-1.025 1.663,-1.763 1.988,-2.213c0.525,-0.725 0.775,-1.375 0.75,-1.95c0.025,-0.55 -0.225,-1.188 -0.75,-1.913c-0.225,-0.299 -0.588,-0.725 -1.087,-1.274c-0.276,-0.275 -0.576,-0.588 -0.901,-0.938c-1.049,-1 -1.787,-1.662 -2.212,-1.988c-0.725,-0.524 -1.375,-0.775 -1.95,-0.75c-0.55,-0.025 -1.188,0.226 -1.913,0.75c-0.45,0.35 -1.187,1.013 -2.212,1.988m0.525,-23.437c-0.725,-0.701 -1.237,-1.15 -1.537,-1.351c-0.5,-0.375 -0.95,-0.562 -1.351,-0.562c-0.375,0 -0.812,0.187 -1.312,0.562c-0.3,0.201 -0.812,0.65 -1.537,1.351c-0.7,0.725 -1.163,1.237 -1.388,1.537c-0.35,0.5 -0.525,0.938 -0.525,1.313c0,0.399 0.175,0.85 0.525,1.349c0.225,0.3 0.688,0.813 1.388,1.538c0.725,0.7 1.237,1.162 1.537,1.388c0.5,0.35 0.937,0.524 1.312,0.524c0.401,0 0.851,-0.174 1.351,-0.524c0.3,-0.226 0.812,-0.688 1.537,-1.388c0.7,-0.725 1.15,-1.238 1.35,-1.538c0.375,-0.499 0.55,-0.95 0.525,-1.349c0.025,-0.375 -0.15,-0.813 -0.525,-1.313c-0.2,-0.275 -0.65,-0.787 -1.35,-1.537m-30.675,-7.088c-0.35,0.25 -0.763,0.563 -1.237,0.938c-0.801,0.725 -1.388,1.3 -1.763,1.724l0,5.063c0.3,0.4 0.688,0.9 1.162,1.5c0.976,1.075 1.663,1.788 2.063,2.137c0.675,0.576 1.3,0.875 1.875,0.901c0.55,0.05 1.213,-0.163 1.988,-0.638c0.475,-0.3 1.249,-0.9 2.324,-1.8c1.075,-0.95 1.788,-1.637 2.138,-2.062c0.575,-0.675 0.875,-1.301 0.9,-1.875c0.075,-0.551 -0.125,-1.213 -0.6,-1.988c-0.15,-0.225 -0.362,-0.537 -0.637,-0.937c-0.325,-0.4 -0.713,-0.876 -1.163,-1.426c-0.6,-0.65 -1.1,-1.162 -1.5,-1.537l-5.55,0Z" style="fill:#849ea1;fill-rule:nonzero;"/><path d="M35.325,46.838c-0.425,0.424 -0.788,0.812 -1.088,1.162l10.463,0c-0.325,-0.35 -0.687,-0.738 -1.088,-1.162c-1.05,-1.001 -1.787,-1.651 -2.212,-1.95c-0.725,-0.526 -1.375,-0.788 -1.95,-0.788c-0.55,0 -1.187,0.262 -1.913,0.788c-0.45,0.324 -1.187,0.974 -2.212,1.95m-11.137,-7.426c-1.025,-0.75 -1.938,-1.112 -2.738,-1.087c-0.775,-0.025 -1.675,0.337 -2.7,1.087c-0.6,0.45 -1.638,1.376 -3.112,2.776c-1.401,1.475 -2.325,2.524 -2.776,3.15c-0.75,1 -1.112,1.887 -1.087,2.662l19.387,0c0.026,-0.775 -0.337,-1.662 -1.087,-2.662c-0.45,-0.626 -1.375,-1.675 -2.775,-3.151c-1.475,-1.399 -2.512,-2.325 -3.113,-2.775m5.738,-36.449c0.05,-0.075 0.1,-0.151 0.15,-0.226c0.75,-1.025 1.113,-1.937 1.087,-2.737l-19.387,0c-0.025,0.8 0.337,1.712 1.087,2.737c0.051,0.075 0.113,0.151 0.188,0.226c0.475,0.625 1.338,1.587 2.588,2.887c1.474,1.4 2.512,2.325 3.112,2.775c1.025,0.75 1.925,1.113 2.7,1.088c0.8,0.025 1.713,-0.338 2.738,-1.088c0.6,-0.45 1.637,-1.375 3.112,-2.775c1.25,-1.3 2.125,-2.262 2.625,-2.887m18.075,7.199l-0.037,0c-1.026,-0.775 -1.95,-1.15 -2.776,-1.125c-0.825,-0.025 -1.762,0.35 -2.812,1.125c-0.65,0.475 -1.737,1.438 -3.263,2.888c-1.449,1.525 -2.412,2.613 -2.887,3.263c-0.775,1.074 -1.15,2.024 -1.125,2.849c-0.025,0.825 0.35,1.763 1.125,2.813c0.475,0.65 1.438,1.737 2.887,3.262c1.526,1.45 2.613,2.413 3.263,2.888c1.05,0.775 1.987,1.15 2.813,1.125c0.825,0.025 1.762,-0.338 2.812,-1.088l0,-18m-1.65,-7.199c0,-0.576 -0.263,-1.213 -0.788,-1.913c-0.174,-0.25 -0.475,-0.6 -0.9,-1.05l-10.387,0c-0.425,0.45 -0.737,0.8 -0.937,1.05c-0.526,0.7 -0.776,1.337 -0.75,1.913l0,0.037c-0.026,0.55 0.224,1.188 0.75,1.912c0.325,0.45 0.987,1.188 1.987,2.213c1.025,1 1.762,1.663 2.212,1.987c0.726,0.526 1.363,0.776 1.913,0.75c0.575,0.026 1.225,-0.224 1.95,-0.75c0.425,-0.324 1.162,-0.987 2.212,-1.987c0.976,-1.025 1.626,-1.763 1.95,-2.213c0.525,-0.724 0.788,-1.362 0.788,-1.912l0,-0.037m-43.087,10.087c-1.551,-1.475 -2.625,-2.438 -3.226,-2.888l-0.037,0l0,18l0.037,-0.037c0.601,-0.45 1.675,-1.413 3.226,-2.888c1.449,-1.525 2.412,-2.612 2.887,-3.262c0.775,-1.05 1.15,-1.988 1.125,-2.813c0.025,-0.825 -0.35,-1.775 -1.125,-2.85c-0.475,-0.649 -1.438,-1.737 -2.887,-3.262m15.075,4.237c-1.55,1.425 -2.575,2.45 -3.075,3.075c-0.85,1.025 -1.288,1.951 -1.313,2.776c-0.075,0.8 0.25,1.762 0.975,2.887c0.425,0.65 1.325,1.788 2.7,3.413c0.75,0.825 1.4,1.5 1.95,2.025c0.45,0.475 0.825,0.824 1.125,1.05c1.025,0.825 1.937,1.249 2.737,1.274c0.826,0.075 1.8,-0.237 2.925,-0.937c0.401,-0.275 1.013,-0.737 1.838,-1.387c0.45,-0.375 0.975,-0.813 1.575,-1.313c1.525,-1.425 2.55,-2.45 3.075,-3.075c0.85,-1.025 1.288,-1.95 1.312,-2.775c0.075,-0.825 -0.249,-1.788 -0.975,-2.888c-0.425,-0.65 -1.325,-1.787 -2.7,-3.412c-1.425,-1.55 -2.449,-2.575 -3.075,-3.075c-1.025,-0.85 -1.949,-1.287 -2.774,-1.313c-0.826,-0.075 -1.788,0.251 -2.888,0.976c-0.675,0.424 -1.813,1.324 -3.412,2.699m-4.088,-6.262c-0.45,-0.45 -0.862,-0.7 -1.237,-0.75c-0.375,-0.05 -0.838,0.062 -1.388,0.337c-0.325,0.176 -0.9,0.551 -1.725,1.125c-0.775,0.626 -1.3,1.075 -1.575,1.351c-0.425,0.45 -0.662,0.862 -0.713,1.237c-0.075,0.375 0.038,0.838 0.338,1.388c0.175,0.325 0.55,0.899 1.125,1.724c0.6,0.801 1.037,1.325 1.313,1.576c0.45,0.45 0.862,0.687 1.237,0.712c0.4,0.075 0.862,-0.038 1.388,-0.337c0.349,-0.176 0.924,-0.551 1.724,-1.125c0.801,-0.626 1.325,-1.063 1.575,-1.313c0.451,-0.45 0.688,-0.862 0.713,-1.237c0.075,-0.401 -0.025,-0.863 -0.3,-1.388c-0.175,-0.325 -0.55,-0.9 -1.125,-1.725c-0.625,-0.8 -1.075,-1.325 -1.35,-1.575m-10.313,20.438l-0.037,0.037c-0.45,0.775 -0.637,1.437 -0.562,1.987c0.024,0.551 0.349,1.163 0.974,1.838c0.351,0.4 1.076,1.062 2.175,1.987c1.151,0.875 1.963,1.438 2.438,1.688c0.775,0.45 1.438,0.638 1.987,0.562c0.576,-0.05 1.188,-0.375 1.838,-0.974c0.4,-0.375 1.062,-1.113 1.987,-2.213c0.875,-1.125 1.45,-1.925 1.726,-2.4c0.45,-0.775 0.624,-1.45 0.524,-2.025c0,-0.15 -0.025,-0.313 -0.075,-0.487c-0.149,-0.425 -0.449,-0.876 -0.899,-1.351c-0.375,-0.4 -1.1,-1.05 -2.175,-1.95c-1.151,-0.874 -1.963,-1.45 -2.438,-1.725c-0.775,-0.45 -1.438,-0.637 -1.988,-0.562c-0.575,0.05 -1.187,0.375 -1.837,0.975c-0.4,0.375 -1.063,1.112 -1.987,2.212c-0.85,1.125 -1.401,1.926 -1.651,2.401Z" style="fill:#7d9598;fill-rule:nonzero;"/><path d="M0.037,10.162c0.601,0.45 1.675,1.413 3.226,2.888c1.449,1.525 2.412,2.613 2.887,3.262c0.775,1.075 1.15,2.025 1.125,2.85c0.025,0.825 -0.35,1.763 -1.125,2.813c-0.475,0.65 -1.438,1.737 -2.887,3.262c-1.551,1.475 -2.625,2.438 -3.226,2.888l-0.037,0.037l0,9.338c0.075,0.05 0.15,0.1 0.225,0.15c0.275,0.225 0.788,0.687 1.538,1.387c0.699,0.725 1.15,1.225 1.349,1.5c0.375,0.526 0.551,0.976 0.526,1.351c0.025,0.4 -0.151,0.85 -0.526,1.349c-0.199,0.275 -0.65,0.788 -1.349,1.538c-0.75,0.7 -1.263,1.15 -1.538,1.35c-0.075,0.075 -0.15,0.137 -0.225,0.188l0,1.687l3,0c0.475,-0.4 0.85,-0.687 1.125,-0.862c0.75,-0.475 1.413,-0.676 1.987,-0.601c0.551,0 1.176,0.3 1.875,0.901c0.151,0.125 0.338,0.312 0.563,0.562l3.225,0c-0.025,-0.775 0.337,-1.662 1.087,-2.662c0.45,-0.626 1.375,-1.675 2.776,-3.15c1.474,-1.4 2.512,-2.326 3.112,-2.776c1.025,-0.75 1.925,-1.112 2.7,-1.087c0.8,-0.025 1.713,0.337 2.738,1.087c0.6,0.45 1.637,1.376 3.112,2.776c1.4,1.475 2.325,2.524 2.775,3.15c0.75,1 1.113,1.887 1.087,2.662l3.075,0c0.3,-0.35 0.663,-0.738 1.088,-1.162c1.025,-0.976 1.762,-1.626 2.212,-1.95c0.726,-0.526 1.363,-0.788 1.913,-0.788c0.575,0 1.225,0.262 1.95,0.788c0.425,0.3 1.163,0.949 2.212,1.95c0.401,0.424 0.763,0.812 1.088,1.162l3.3,0l0,-1.725c-0.425,0.275 -0.8,0.4 -1.125,0.375c-0.4,0.025 -0.85,-0.15 -1.35,-0.525c-0.3,-0.2 -0.813,-0.65 -1.538,-1.35c-0.675,-0.725 -1.125,-1.238 -1.349,-1.538c-0.375,-0.499 -0.551,-0.949 -0.526,-1.349c-0.025,-0.375 0.151,-0.825 0.526,-1.351c0.224,-0.275 0.674,-0.775 1.349,-1.5c0.725,-0.7 1.238,-1.162 1.538,-1.387c0.5,-0.35 0.95,-0.525 1.35,-0.525c0.325,0 0.7,0.125 1.125,0.375l0,-9.338c-1.05,0.75 -1.987,1.113 -2.813,1.088c-0.825,0.025 -1.762,-0.35 -2.812,-1.125c-0.65,-0.475 -1.737,-1.438 -3.263,-2.888c-1.449,-1.525 -2.412,-2.612 -2.887,-3.262c-0.775,-1.05 -1.15,-1.988 -1.125,-2.813c-0.025,-0.825 0.35,-1.775 1.125,-2.85c0.475,-0.649 1.438,-1.737 2.887,-3.262c1.526,-1.45 2.613,-2.413 3.263,-2.888c1.05,-0.775 1.987,-1.15 2.813,-1.125c0.825,-0.025 1.749,0.35 2.775,1.125l0.037,0l0,-2.437l-0.037,-0.038c-0.251,-0.324 -0.438,-0.599 -0.563,-0.825c-0.5,-0.75 -0.712,-1.412 -0.637,-1.987c0.025,-0.55 0.324,-1.163 0.899,-1.838c0.026,-0.025 0.05,-0.049 0.075,-0.074c0.051,-0.1 0.126,-0.188 0.226,-0.263c0,-0.025 0.012,-0.038 0.037,-0.038l0,-2.662l-3.338,0c0.425,0.45 0.726,0.8 0.901,1.05c0.524,0.7 0.787,1.337 0.787,1.913l0,0.037c0,0.55 -0.263,1.187 -0.788,1.912c-0.324,0.45 -0.974,1.188 -1.95,2.213c-1.05,1 -1.787,1.663 -2.212,1.987c-0.725,0.526 -1.375,0.776 -1.95,0.75c-0.55,0.026 -1.187,-0.224 -1.913,-0.75c-0.45,-0.324 -1.187,-0.987 -2.212,-1.987c-1,-1.025 -1.662,-1.763 -1.987,-2.213c-0.525,-0.725 -0.775,-1.362 -0.75,-1.912l0,-0.037c-0.025,-0.576 0.225,-1.213 0.75,-1.913c0.2,-0.25 0.512,-0.6 0.937,-1.05l-3.113,0c0.026,0.8 -0.337,1.712 -1.087,2.737c-0.05,0.075 -0.1,0.151 -0.15,0.226c-0.5,0.625 -1.375,1.587 -2.625,2.887c-1.475,1.4 -2.512,2.325 -3.112,2.775c-1.025,0.75 -1.938,1.113 -2.738,1.088c-0.775,0.025 -1.675,-0.338 -2.7,-1.088c-0.6,-0.45 -1.638,-1.375 -3.112,-2.775c-1.25,-1.3 -2.113,-2.262 -2.588,-2.887c-0.075,-0.075 -0.137,-0.15 -0.188,-0.226c-0.75,-1.025 -1.112,-1.937 -1.087,-2.737l-3.225,0c0.4,0.375 0.9,0.887 1.5,1.537c0.45,0.55 0.838,1.026 1.163,1.426c0.275,0.4 0.487,0.712 0.637,0.937c0.475,0.775 0.675,1.437 0.6,1.988c-0.025,0.574 -0.325,1.2 -0.9,1.875c-0.35,0.425 -1.063,1.112 -2.138,2.062c-1.075,0.9 -1.849,1.5 -2.324,1.8c-0.775,0.475 -1.438,0.688 -1.988,0.638c-0.575,-0.026 -1.2,-0.325 -1.875,-0.901c-0.4,-0.349 -1.087,-1.062 -2.063,-2.137c-0.474,-0.6 -0.862,-1.1 -1.162,-1.5l0,2.437l0.037,0m3.863,21.338l0.038,-0.037c0.25,-0.475 0.8,-1.276 1.65,-2.401c0.924,-1.1 1.587,-1.837 1.987,-2.212c0.65,-0.6 1.262,-0.925 1.837,-0.975c0.55,-0.075 1.213,0.112 1.988,0.563c0.475,0.274 1.288,0.85 2.438,1.724c1.075,0.901 1.8,1.55 2.175,1.95c0.45,0.475 0.75,0.926 0.899,1.351c0.05,0.174 0.075,0.337 0.075,0.487c0.1,0.575 -0.074,1.25 -0.524,2.025c-0.275,0.475 -0.851,1.275 -1.726,2.4c-0.924,1.1 -1.587,1.838 -1.987,2.213c-0.65,0.6 -1.262,0.924 -1.838,0.975c-0.549,0.075 -1.212,-0.113 -1.987,-0.563c-0.475,-0.25 -1.287,-0.812 -2.438,-1.687c-1.099,-0.926 -1.824,-1.588 -2.174,-1.988c-0.625,-0.675 -0.951,-1.287 -0.975,-1.838c-0.075,-0.549 0.112,-1.212 0.562,-1.987m9.113,-21.225c0.375,0.05 0.787,0.3 1.237,0.75c0.275,0.25 0.725,0.775 1.35,1.575c0.575,0.825 0.95,1.4 1.125,1.725c0.275,0.525 0.375,0.988 0.3,1.388c-0.025,0.375 -0.262,0.787 -0.712,1.237c-0.25,0.25 -0.775,0.688 -1.576,1.313c-0.799,0.574 -1.375,0.949 -1.724,1.125c-0.526,0.3 -0.988,0.412 -1.388,0.337c-0.375,-0.025 -0.787,-0.262 -1.237,-0.712c-0.276,-0.25 -0.713,-0.775 -1.313,-1.575c-0.575,-0.826 -0.95,-1.4 -1.125,-1.725c-0.3,-0.55 -0.413,-1.013 -0.338,-1.388c0.051,-0.375 0.288,-0.787 0.713,-1.237c0.275,-0.275 0.8,-0.725 1.575,-1.351c0.825,-0.574 1.4,-0.949 1.725,-1.125c0.55,-0.275 1.013,-0.387 1.388,-0.337m2.25,10.087c0.5,-0.625 1.525,-1.65 3.075,-3.075c1.6,-1.375 2.737,-2.274 3.412,-2.699c1.1,-0.725 2.063,-1.051 2.888,-0.976c0.825,0.026 1.749,0.463 2.774,1.313c0.626,0.5 1.651,1.525 3.075,3.075c1.375,1.625 2.275,2.762 2.701,3.412c0.725,1.101 1.049,2.063 0.974,2.888c-0.024,0.825 -0.462,1.75 -1.312,2.775c-0.525,0.625 -1.55,1.65 -3.075,3.075c-0.6,0.5 -1.125,0.938 -1.575,1.313c-0.825,0.65 -1.437,1.112 -1.838,1.387c-1.125,0.7 -2.099,1.012 -2.924,0.937c-0.801,-0.024 -1.713,-0.449 -2.738,-1.274c-0.3,-0.226 -0.675,-0.575 -1.125,-1.05c-0.55,-0.525 -1.2,-1.2 -1.95,-2.025c-1.375,-1.625 -2.275,-2.763 -2.7,-3.413c-0.725,-1.125 -1.05,-2.087 -0.975,-2.887c0.025,-0.825 0.463,-1.75 1.313,-2.776m16.875,-14.625c0.3,0.201 0.812,0.651 1.537,1.351c0.7,0.75 1.15,1.262 1.35,1.537c0.375,0.5 0.55,0.938 0.525,1.313c0.025,0.399 -0.15,0.85 -0.525,1.349c-0.2,0.3 -0.65,0.813 -1.35,1.538c-0.725,0.7 -1.237,1.162 -1.537,1.388c-0.5,0.35 -0.95,0.524 -1.351,0.524c-0.375,0 -0.812,-0.174 -1.312,-0.524c-0.3,-0.226 -0.812,-0.688 -1.537,-1.388c-0.7,-0.725 -1.163,-1.238 -1.388,-1.538c-0.35,-0.499 -0.525,-0.95 -0.525,-1.349c0,-0.375 0.175,-0.813 0.525,-1.313c0.225,-0.3 0.688,-0.812 1.388,-1.537c0.725,-0.7 1.237,-1.15 1.537,-1.351c0.5,-0.375 0.937,-0.562 1.312,-0.562c0.401,0 0.851,0.187 1.351,0.562m0.149,25.726c0.251,-0.275 0.538,-0.588 0.863,-0.938c1.025,-0.975 1.762,-1.637 2.212,-1.988c0.725,-0.524 1.363,-0.774 1.913,-0.75c0.575,-0.024 1.225,0.226 1.95,0.75c0.425,0.326 1.163,0.988 2.212,1.988c0.325,0.35 0.625,0.663 0.901,0.938c0.499,0.549 0.862,0.975 1.087,1.274c0.525,0.725 0.775,1.363 0.75,1.913c0.025,0.575 -0.225,1.225 -0.75,1.95c-0.325,0.45 -0.988,1.188 -1.988,2.213c-1.049,1 -1.787,1.662 -2.212,1.987c-0.725,0.525 -1.375,0.775 -1.95,0.75c-0.55,0.025 -1.188,-0.225 -1.913,-0.75c-0.45,-0.35 -1.187,-1.012 -2.212,-1.987c-0.975,-1.025 -1.625,-1.763 -1.95,-2.213c-0.55,-0.725 -0.812,-1.375 -0.788,-1.95c-0.024,-0.55 0.238,-1.188 0.788,-1.913c0.225,-0.299 0.588,-0.725 1.087,-1.274m-32.287,-31.463l0,2.662c0.375,-0.424 0.962,-0.999 1.763,-1.724c0.474,-0.375 0.887,-0.688 1.237,-0.938l-3,0Z" style="fill:#758c8e;fill-rule:nonzero;"/><path d="M11.25,46.5l0,1.5l1.5,0l0,-1.5l-1.5,0m25.5,1.5l0,-1.5l-1.5,0l0,1.5l1.5,0m-35.25,-5.775c0.075,2.85 1.563,4.275 4.463,4.275l5.287,0l0,-8.25l-9.75,0l0,3.975m0,-5.475l-1.5,0l0,1.5l1.5,0l0,-1.5m0,-10.5l0,-1.5l-1.5,0l0,1.5l1.5,0m0,-13.5l-1.5,0l0,1.5l1.5,0l0,-1.5m33.75,25.5l-22.5,0l0,8.25l22.5,0l0,-8.25m-22.5,-24l0,10.5l22.5,0l0,-10.5l-22.5,0m-1.5,10.5l0,-10.5l-9.75,0l0,10.5l9.75,0m12,12l0,-10.5l-21.75,0l0,10.5l21.75,0m18.787,9.75c2.901,0 4.388,-1.425 4.463,-4.275l0,-3.975l-9.75,0l0,8.25l5.287,0m4.463,-21.75l0,-10.5l-9.75,0l0,10.5l9.75,0m0,12l0,-10.5l-21.75,0l0,10.5l21.75,0m0,0l0,1.5l1.5,0l0,-1.5l-1.5,0m1.5,-10.5l0,-1.5l-1.5,0l0,1.5l1.5,0m0,-13.5l-1.5,0l0,1.5l1.5,0l0,-1.5m-5.963,-9.75l-17.287,0l0,9.75l21.75,0l0,-5.287c0,-2.975 -1.488,-4.463 -4.463,-4.463m-18.787,0l-17.287,0c-2.975,0 -4.463,1.488 -4.463,4.463l0,5.287l21.75,0l0,-9.75m1.5,-1.5l-1.5,0l0,1.5l1.5,0l0,-1.5Z" style="fill:#3495cd;fill-rule:nonzero;"/><path d="M35.25,48l0,-1.5l-22.5,0l0,1.5l22.5,0m-33.75,-9.75l-1.5,0l0,4.162c0.125,3.601 1.987,5.463 5.588,5.588l5.662,0l0,-1.5l-5.287,0c-2.901,0 -4.388,-1.425 -4.463,-4.275l0,-3.975m0,-12l-1.5,0l0,10.5l1.5,0l0,-10.5m0,-12l-1.5,0l0,10.5l1.5,0l0,-10.5m46.5,12l-1.5,0l0,10.5l1.5,0l0,-10.5m0,12l-1.5,0l0,3.975c-0.075,2.85 -1.563,4.275 -4.463,4.275l-5.287,0l0,1.5l5.662,0c3.601,-0.125 5.463,-1.987 5.588,-5.588l0,-4.162m0,-24l-1.5,0l0,10.5l1.5,0l0,-10.5m-23.25,-12.75l0,1.5l17.287,0c2.975,0 4.463,1.488 4.463,4.463l0,5.287l1.5,0l0,-5.662c-0.125,-3.601 -1.987,-5.463 -5.588,-5.588l-17.662,0m-1.5,1.5l0,-1.5l-17.662,0c-3.601,0.125 -5.463,1.987 -5.588,5.588l0,5.662l1.5,0l0,-5.287c0,-2.975 1.488,-4.463 4.463,-4.463l17.287,0Z" style="fill:#42baff;fill-rule:nonzero;"/><path d="M36.75,38.25l-1.5,0l0,8.25l1.5,0l0,-8.25m-24,0l-1.5,0l0,8.25l1.5,0l0,-8.25m10.5,-12l0,10.5l1.5,0l0,-10.5l-1.5,0m-10.5,-12l-1.5,0l0,10.5l1.5,0l0,-10.5m24,0l-1.5,0l0,10.5l1.5,0l0,-10.5m-12,-11.25l-1.5,0l0,9.75l1.5,0l0,-9.75Z" style="fill:#2f88bb;fill-rule:nonzero;"/><path d="M46.5,38.25l0,-1.5l-21.75,0l-1.5,0l-21.75,0l0,1.5l45,0m0,-12l0,-1.5l-9.75,0l-1.5,0l-22.5,0l-1.5,0l-9.75,0l0,1.5l45,0m0,-12l0,-1.5l-21.75,0l-1.5,0l-21.75,0l0,1.5l45,0Z" style="fill:#2b7dad;fill-rule:nonzero;"/><path d="M3.975,0.188c-2.05,0.45 -3.3,1.699 -3.75,3.749c-0.125,0.525 -0.2,1.1 -0.225,1.725l0,20.7c0.025,1.2 0.525,2.1 1.5,2.7c0.925,0.575 2.288,0.875 4.088,0.901l36.824,0c1.8,-0.026 3.163,-0.326 4.088,-0.901c0.975,-0.6 1.475,-1.5 1.5,-2.7l0,-20.7c-0.025,-0.65 -0.087,-1.225 -0.188,-1.725c-0.05,-0.149 -0.087,-0.287 -0.112,-0.412c-0.2,-0.625 -0.475,-1.175 -0.825,-1.65c-0.65,-0.85 -1.587,-1.413 -2.812,-1.688c-0.451,-0.1 -0.938,-0.162 -1.463,-0.187l-37.162,0c-0.525,0.025 -1.013,0.087 -1.463,0.187m-2.287,4.125l0,-0.037c0.324,-1.425 1.2,-2.3 2.625,-2.625c0.35,-0.075 0.725,-0.125 1.125,-0.15l37.087,0c0.425,0.025 0.825,0.075 1.2,0.15c0.85,0.2 1.5,0.588 1.95,1.162l0,-0.037c0.25,0.325 0.45,0.712 0.6,1.162c0.025,0.125 0.062,0.263 0.113,0.413c0.05,0.4 0.087,0.863 0.112,1.387l0,21.825c-0.925,0.575 -2.288,0.875 -4.088,0.901l-36.824,0c-1.8,-0.026 -3.163,-0.326 -4.088,-0.901l0,-21.825c0.025,-0.524 0.087,-0.999 0.187,-1.425l0.001,0Z" style="fill:#42baff;fill-rule:nonzero;"/><path d="M1.688,4.275l0,0.037c-0.101,0.426 -0.163,0.901 -0.188,1.425l0,21.825c0.925,0.575 2.288,0.876 4.088,0.901l36.824,0c1.8,-0.025 3.163,-0.326 4.088,-0.9l0,-21.826c-0.025,-0.524 -0.062,-0.987 -0.112,-1.387c-0.051,-0.15 -0.088,-0.287 -0.113,-0.412c-0.15,-0.451 -0.35,-0.838 -0.6,-1.163l0,0.038c-0.45,-0.575 -1.1,-0.963 -1.95,-1.163c-0.375,-0.075 -0.775,-0.125 -1.2,-0.15l-37.087,0c-0.4,0.025 -0.775,0.075 -1.125,0.15c-1.425,0.325 -2.301,1.2 -2.625,2.625m41.662,0.45l0.075,0.075l0,0.15c0.025,0.275 0.05,0.588 0.075,0.938l0,19.5c-0.325,0.05 -0.687,0.075 -1.088,0.075l-36.75,0c-0.424,0 -0.812,-0.025 -1.162,-0.075l0,-19.5c0.025,-0.325 0.062,-0.613 0.112,-0.863c0,-0.05 0.013,-0.1 0.038,-0.15c0.05,-0.15 0.163,-0.25 0.337,-0.3l-0.037,0c0.2,-0.05 0.425,-0.075 0.675,-0.075l36.75,0c0.225,0.025 0.45,0.05 0.675,0.075c0.1,0.025 0.187,0.062 0.263,0.113c0.024,0 0.037,0.012 0.037,0.037m0.038,0.075l0,-0.037l0,0.037Z" style="fill:#3ca8e7;fill-rule:nonzero;"/><path d="M43.425,4.912l0,-0.112l-0.037,-0.037l0,0.037c0.024,0.034 0.036,0.071 0.037,0.112Z" style="fill:#3494cb;fill-rule:nonzero;"/><path d="M43.388,4.763l-0.038,-0.038c0,-0.025 -0.013,-0.037 -0.038,-0.037c-0.075,-0.051 -0.162,-0.088 -0.262,-0.113c-0.225,-0.025 -0.45,-0.05 -0.675,-0.075l-36.75,0c-0.25,0 -0.475,0.025 -0.675,0.075l0.037,0c-0.175,0.05 -0.287,0.15 -0.337,0.3c-0.025,0.05 -0.038,0.1 -0.038,0.15c-0.05,0.25 -0.087,0.538 -0.112,0.863l0,19.5c0.35,0.05 0.738,0.075 1.162,0.075l36.75,0c0.4,0 0.763,-0.025 1.088,-0.075l0,-19.5c-0.025,-0.35 -0.05,-0.663 -0.075,-0.938l0,-0.038c-0.001,-0.041 -0.013,-0.078 -0.037,-0.112l0,-0.037Z" style="fill:#3290c6;fill-rule:nonzero;"/><path id="Layer0_45_MEMBER_1_FILL" d="M42.037,0l-36.074,0c-3.976,0 -5.963,1.988 -5.963,5.962l0,36.076c0,3.974 1.987,5.962 5.963,5.962l36.074,0c3.976,0 5.963,-1.988 5.963,-5.962l0,-36.076c0,-3.974 -1.987,-5.962 -5.963,-5.962Z" style="fill-opacity:0.3;fill-rule:nonzero;"/></svg>