<?xml version="1.0" encoding="UTF-8" standalone="no"?><!DOCTYPE svg PUBLIC "-//W3C//DTD SVG 1.1//EN" "http://www.w3.org/Graphics/SVG/1.1/DTD/svg11.dtd"><svg width="100%" height="100%" viewBox="0 0 48 48" version="1.1" xmlns="http://www.w3.org/2000/svg" xmlns:xlink="http://www.w3.org/1999/xlink" xml:space="preserve" xmlns:serif="http://www.serif.com/" style="fill-rule:evenodd;clip-rule:evenodd;stroke-linejoin:round;stroke-miterlimit:2;"><path d="M2.061,14.25c1.523,-2.625 2.697,-5.55 3.522,-8.775c0.6,-1.925 1.117,-3.75 1.917,-5.475l-7.5,0l0,17.25c0.749,-0.999 1.436,-1.925 2.061,-3m40.506,28.125c-0.499,2 -1.294,3.875 -2.067,5.625l7.5,0l0,-17.25c-2.248,3.25 -4.059,7.25 -5.433,11.625m5.433,-42.375l-7.5,0c-0.475,1.1 -0.856,2.15 -1.455,3.15c-4.172,7.225 -11.042,12.312 -20.609,15.263l0.038,0.037c-7.869,1.95 -14.027,5.925 -18.474,12.3l0,17.25l7.5,0c4.472,-9.85 11.985,-16.038 22.177,-18.563l-0.038,-0.037c8.07,-2.5 14.189,-6.625 18.361,-12.15l0,-17.25Z" style="fill:#abe3f5;fill-rule:nonzero;"/><path d="M29.639,29.4l0.038,0.037c-10.192,2.525 -17.705,8.713 -22.177,18.563l33,0c0.773,-1.75 1.568,-3.625 2.067,-5.625c1.374,-4.375 3.185,-8.375 5.433,-11.625l0,-13.5c-4.172,5.525 -10.291,9.65 -18.361,12.15m9.406,-26.25c0.599,-1 0.98,-2.05 1.455,-3.15l-33,0c-0.799,1.725 -1.317,3.55 -1.917,5.475c-0.825,3.225 -1.999,6.15 -3.522,8.775c-0.625,1.075 -1.312,2.001 -2.061,3l0,13.5c4.447,-6.375 10.605,-10.35 18.474,-12.3l-0.038,-0.037c9.567,-2.951 16.437,-8.038 20.609,-15.263Z" style="fill:#b0e9fc;fill-rule:nonzero;"/></svg>