<?xml version="1.0" encoding="UTF-8" standalone="no"?><!DOCTYPE svg PUBLIC "-//W3C//DTD SVG 1.1//EN" "http://www.w3.org/Graphics/SVG/1.1/DTD/svg11.dtd"><svg width="100%" height="100%" viewBox="0 0 49 48" version="1.1" xmlns="http://www.w3.org/2000/svg" xmlns:xlink="http://www.w3.org/1999/xlink" xml:space="preserve" xmlns:serif="http://www.serif.com/" style="fill-rule:evenodd;clip-rule:evenodd;stroke-linejoin:round;stroke-miterlimit:2;"><path d="M2.063,14.25c1.524,-2.625 2.699,-5.55 3.524,-8.775c0.601,-1.925 1.3,-3.75 2.101,-5.475l-7.688,0l0,17.362c0.75,-0.999 1.437,-2.037 2.063,-3.112m40.537,28.125c-0.5,2 -1.138,3.875 -1.912,5.625l7.349,0l0,-17.063c-2.25,3.25 -4.062,7.063 -5.437,11.438m5.437,-42.375l-7.349,0c-0.475,1.1 -1.013,2.15 -1.613,3.15c-4.175,7.225 -11.05,12.312 -20.625,15.263l0.038,0.037c-7.875,1.95 -14.038,6.113 -18.488,12.488l0,17.062l7.687,0c4.475,-9.85 11.813,-16.038 22.013,-18.563l-0.038,-0.037c8.076,-2.5 14.2,-6.513 18.375,-12.038l0,-17.362Z" style="fill:#abe3f5;fill-rule:nonzero;"/><path d="M29.662,29.4l0.038,0.037c-10.2,2.525 -17.538,8.713 -22.013,18.563l33.001,0c0.774,-1.75 1.412,-3.625 1.912,-5.625c1.375,-4.375 3.187,-8.188 5.437,-11.438l0,-13.575c-4.175,5.525 -10.299,9.538 -18.375,12.038m9.413,-26.25c0.6,-1 1.138,-2.05 1.613,-3.15l-33,0c-0.8,1.725 -1.5,3.55 -2.101,5.475c-0.825,3.225 -2,6.15 -3.524,8.775c-0.626,1.075 -1.313,2.113 -2.063,3.112l0,13.576c4.45,-6.375 10.613,-10.538 18.488,-12.488l-0.038,-0.037c9.575,-2.951 16.45,-8.038 20.625,-15.263Z" style="fill:#b0e9fc;fill-rule:nonzero;"/></svg>