<?xml version="1.0" encoding="UTF-8" standalone="no"?><!DOCTYPE svg PUBLIC "-//W3C//DTD SVG 1.1//EN" "http://www.w3.org/Graphics/SVG/1.1/DTD/svg11.dtd"><svg width="100%" height="100%" viewBox="0 0 48 48" version="1.1" xmlns="http://www.w3.org/2000/svg" xmlns:xlink="http://www.w3.org/1999/xlink" xml:space="preserve" xmlns:serif="http://www.serif.com/" style="fill-rule:evenodd;clip-rule:evenodd;stroke-linejoin:round;stroke-miterlimit:2;"><path d="M5.963,0c-3.976,0 -5.963,1.987 -5.963,5.962l0,36.076c0,2 0.5,3.5 1.5,4.5c0.875,0.849 2.125,1.337 3.75,1.462l37.5,0c1.625,-0.125 2.875,-0.613 3.75,-1.462c1,-1 1.5,-2.5 1.5,-4.5l0,-36.076c0,-3.975 -1.987,-5.962 -5.963,-5.962l-36.074,0m-4.463,9.45l0,-3.488c0,-2.974 1.488,-4.462 4.463,-4.462l36.074,0c2.975,0 4.463,1.488 4.463,4.462l0,36.375c-0.1,2.775 -1.587,4.163 -4.463,4.163l-36.074,0c-2.876,0 -4.363,-1.388 -4.463,-4.163l0,-31.387l0,-1.5Z" style="fill:#5f5f5f;fill-rule:nonzero;"/><path d="M5.963,6.591c-2.876,0 -4.363,1.406 -4.463,4.217l0,31.513c0.1,2.786 1.587,4.179 4.463,4.179l36.074,0c2.876,0 4.363,-1.393 4.463,-4.179l0,-31.513c-0.1,-2.811 -1.587,-4.217 -4.463,-4.217l-36.074,0Z" style="fill:#474747;fill-rule:nonzero;"/><path d="M1.5,10.95c0.1,-2.891 1.587,-4.336 4.463,-4.336l36.074,0c2.876,0 4.363,1.445 4.463,4.336l0,-1.549c-0.1,-2.891 -1.587,-4.336 -4.463,-4.336l-36.074,0c-2.876,0 -4.363,1.445 -4.463,4.336l0,1.549Z" style="fill:#474747;fill-rule:nonzero;"/><path d="M1.5,5.962l0,3.488c0.1,-2.8 1.587,-4.2 4.463,-4.2l36.074,0c2.876,0 4.363,1.4 4.463,4.2l0,-3.488c0,-2.974 -1.488,-4.462 -4.463,-4.462l-36.074,0c-2.975,0 -4.463,1.488 -4.463,4.462Z" style="fill:#484848;fill-rule:nonzero;"/><path d="M42.412,37.462c1.8,-0.025 3.163,-0.325 4.088,-0.9l0,-1.5c-0.925,0.575 -2.288,0.875 -4.088,0.9l-36.824,0c-1.8,-0.025 -3.163,-0.325 -4.088,-0.9l0,1.5c0.925,0.575 2.288,0.875 4.088,0.9l36.824,0Z" style="fill:#fff;fill-opacity:0.1;fill-rule:nonzero;"/><path d="M46.5,42.337l0,-5.775c-0.925,0.575 -2.288,0.875 -4.088,0.9l-36.824,0c-1.8,-0.025 -3.163,-0.325 -4.088,-0.9l0,5.775c0.1,2.775 1.587,4.163 4.463,4.163l36.074,0c2.876,0 4.363,-1.388 4.463,-4.163Z" style="fill-opacity:0.1;fill-rule:nonzero;"/><path d="M46.5,7.09c0,-3.727 -1.863,-5.59 -5.59,-5.59l-33.82,0c-3.727,0 -5.59,1.863 -5.59,5.59l0,33.82c0,3.727 1.863,5.59 5.59,5.59l33.82,0c3.727,0 5.59,-1.863 5.59,-5.59l0,-33.82m-5.59,-4.184c2.789,0 4.184,1.395 4.184,4.184l0,33.82c0,2.789 -1.395,4.184 -4.184,4.184l-33.82,0c-2.789,0 -4.184,-1.395 -4.184,-4.184l0,-33.82c0,-2.789 1.395,-4.184 4.184,-4.184l33.82,0m-3.199,7.383l-7.031,0l-20.391,20.391l0,7.031l7.031,0l20.391,-20.391l0,-7.031Z" style="fill:#d9944e;fill-rule:nonzero;"/><path d="M45.094,7.09c0,-2.789 -1.395,-4.184 -4.184,-4.184l-33.82,0c-2.789,0 -4.184,1.395 -4.184,4.184l0,33.82c0,2.789 1.395,4.184 4.184,4.184l33.82,0c2.789,0 4.184,-1.395 4.184,-4.184l0,-33.82m-5.625,1.441l0,30.938l-30.938,0l0,-30.938l30.938,0Z" style="fill:#cd8c4a;fill-rule:nonzero;"/><path d="M39.469,39.469l0,-30.938l-30.938,0l0,30.938l30.938,0m-8.789,-29.18l7.031,0l0,7.031l-20.391,20.391l-7.031,0l0,-7.031l20.391,-20.391Z" style="fill:#aa733c;fill-rule:nonzero;"/><path d="M40.91,1.5c3.727,0 5.59,1.863 5.59,5.59l0,33.82c0,3.727 -1.863,5.59 -5.59,5.59l-33.82,0c-3.727,0 -5.59,-1.863 -5.59,-5.59l0,-33.82c0,-3.727 1.863,-5.59 5.59,-5.59l33.82,0Zm3.938,41.191c0.048,-0.148 0.088,-0.304 0.122,-0.466c-0.037,0.18 -0.083,0.352 -0.138,0.515l0.016,-0.049Z" style="fill-opacity:0.2;fill-rule:nonzero;"/></svg>