<?xml version="1.0" encoding="UTF-8" standalone="no"?><!DOCTYPE svg PUBLIC "-//W3C//DTD SVG 1.1//EN" "http://www.w3.org/Graphics/SVG/1.1/DTD/svg11.dtd"><svg width="100%" height="100%" viewBox="0 0 48 48" version="1.1" xmlns="http://www.w3.org/2000/svg" xmlns:xlink="http://www.w3.org/1999/xlink" xml:space="preserve" xmlns:serif="http://www.serif.com/" style="fill-rule:evenodd;clip-rule:evenodd;stroke-linejoin:round;stroke-miterlimit:2;"><path d="M45.525,37.65c-0.3,0.225 -0.813,0.687 -1.538,1.387c-0.675,0.725 -1.125,1.225 -1.349,1.5c-0.375,0.526 -0.551,0.976 -0.526,1.351c-0.025,0.4 0.151,0.85 0.526,1.349c0.224,0.3 0.674,0.813 1.349,1.538c0.725,0.7 1.238,1.15 1.538,1.35c0.5,0.375 0.95,0.55 1.35,0.525c0.325,0.025 0.7,-0.1 1.125,-0.375l0,-8.775c-0.425,-0.25 -0.8,-0.375 -1.125,-0.375c-0.4,0 -0.85,0.175 -1.35,0.525m2.475,-34.988c-0.025,0 -0.037,0.013 -0.037,0.038c-0.1,0.075 -0.175,0.163 -0.226,0.263c-0.025,0.025 -0.05,0.049 -0.075,0.074c-0.575,0.675 -0.874,1.288 -0.899,1.838c-0.075,0.575 0.137,1.237 0.637,1.987c0.125,0.226 0.312,0.501 0.563,0.826l0.037,0.037l0,-5.063m-43.875,44.476c-0.275,0.175 -0.65,0.462 -1.125,0.862l5.55,0c-0.225,-0.25 -0.412,-0.437 -0.563,-0.562c-0.699,-0.601 -1.324,-0.901 -1.875,-0.901c-0.574,-0.075 -1.237,0.126 -1.987,0.601m-1.013,-6.601c-0.199,-0.275 -0.65,-0.775 -1.349,-1.5c-0.75,-0.7 -1.263,-1.162 -1.538,-1.387c-0.075,-0.05 -0.15,-0.1 -0.225,-0.15l0,8.813c0.075,-0.051 0.15,-0.113 0.225,-0.188c0.275,-0.2 0.788,-0.65 1.538,-1.35c0.699,-0.75 1.15,-1.263 1.349,-1.538c0.375,-0.499 0.551,-0.949 0.526,-1.349c0.025,-0.375 -0.151,-0.825 -0.526,-1.351m30.038,-10.012c-0.325,0.35 -0.612,0.663 -0.863,0.938c-0.499,0.549 -0.862,0.975 -1.087,1.274c-0.55,0.725 -0.812,1.363 -0.788,1.913c-0.024,0.575 0.238,1.225 0.788,1.95c0.325,0.45 0.975,1.188 1.95,2.213c1.025,0.975 1.762,1.637 2.212,1.987c0.725,0.525 1.363,0.775 1.913,0.75c0.575,0.025 1.225,-0.225 1.95,-0.75c0.425,-0.325 1.163,-0.987 2.212,-1.987c1,-1.025 1.663,-1.763 1.988,-2.213c0.525,-0.725 0.775,-1.375 0.75,-1.95c0.025,-0.55 -0.225,-1.188 -0.75,-1.913c-0.225,-0.299 -0.588,-0.725 -1.087,-1.274c-0.276,-0.275 -0.576,-0.588 -0.901,-0.938c-1.049,-1 -1.787,-1.662 -2.212,-1.988c-0.725,-0.524 -1.375,-0.775 -1.95,-0.75c-0.55,-0.025 -1.188,0.226 -1.913,0.75c-0.45,0.35 -1.187,1.013 -2.212,1.988m0.525,-23.437c-0.725,-0.701 -1.237,-1.15 -1.537,-1.351c-0.5,-0.375 -0.95,-0.562 -1.351,-0.562c-0.375,0 -0.812,0.187 -1.312,0.562c-0.3,0.201 -0.812,0.65 -1.537,1.351c-0.7,0.725 -1.163,1.237 -1.388,1.537c-0.35,0.5 -0.525,0.938 -0.525,1.313c0,0.399 0.175,0.85 0.525,1.349c0.225,0.3 0.688,0.813 1.388,1.538c0.725,0.7 1.237,1.162 1.537,1.388c0.5,0.35 0.937,0.524 1.312,0.524c0.401,0 0.851,-0.174 1.351,-0.524c0.3,-0.226 0.812,-0.688 1.537,-1.388c0.7,-0.725 1.15,-1.238 1.35,-1.538c0.375,-0.499 0.55,-0.95 0.525,-1.349c0.025,-0.375 -0.15,-0.813 -0.525,-1.313c-0.2,-0.275 -0.65,-0.787 -1.35,-1.537m-30.675,-7.088c-0.35,0.25 -0.763,0.563 -1.237,0.938c-0.801,0.725 -1.388,1.3 -1.763,1.724l0,5.063c0.3,0.4 0.688,0.9 1.162,1.5c0.976,1.075 1.663,1.788 2.063,2.137c0.675,0.576 1.3,0.875 1.875,0.901c0.55,0.05 1.213,-0.163 1.988,-0.638c0.475,-0.3 1.249,-0.9 2.324,-1.8c1.075,-0.95 1.788,-1.637 2.138,-2.062c0.575,-0.675 0.875,-1.301 0.9,-1.875c0.075,-0.551 -0.125,-1.213 -0.6,-1.988c-0.15,-0.225 -0.362,-0.537 -0.637,-0.937c-0.325,-0.4 -0.713,-0.876 -1.163,-1.426c-0.6,-0.65 -1.1,-1.162 -1.5,-1.537l-5.55,0Z" style="fill:#849ea1;fill-rule:nonzero;"/><path d="M35.325,46.838c-0.425,0.424 -0.788,0.812 -1.088,1.162l10.463,0c-0.325,-0.35 -0.687,-0.738 -1.088,-1.162c-1.05,-1.001 -1.787,-1.651 -2.212,-1.95c-0.725,-0.526 -1.375,-0.788 -1.95,-0.788c-0.55,0 -1.187,0.262 -1.913,0.788c-0.45,0.324 -1.187,0.974 -2.212,1.95m-11.137,-7.426c-1.025,-0.75 -1.938,-1.112 -2.738,-1.087c-0.775,-0.025 -1.675,0.337 -2.7,1.087c-0.6,0.45 -1.638,1.376 -3.112,2.776c-1.401,1.475 -2.325,2.524 -2.776,3.15c-0.75,1 -1.112,1.887 -1.087,2.662l19.387,0c0.026,-0.775 -0.337,-1.662 -1.087,-2.662c-0.45,-0.626 -1.375,-1.675 -2.775,-3.151c-1.475,-1.399 -2.512,-2.325 -3.113,-2.775m5.738,-36.449c0.05,-0.075 0.1,-0.151 0.15,-0.226c0.75,-1.025 1.113,-1.937 1.087,-2.737l-19.387,0c-0.025,0.8 0.337,1.712 1.087,2.737c0.051,0.075 0.113,0.151 0.188,0.226c0.475,0.625 1.338,1.587 2.588,2.887c1.474,1.4 2.512,2.325 3.112,2.775c1.025,0.75 1.925,1.113 2.7,1.088c0.8,0.025 1.713,-0.338 2.738,-1.088c0.6,-0.45 1.637,-1.375 3.112,-2.775c1.25,-1.3 2.125,-2.262 2.625,-2.887m18.075,7.199l-0.037,0c-1.026,-0.775 -1.95,-1.15 -2.776,-1.125c-0.825,-0.025 -1.762,0.35 -2.812,1.125c-0.65,0.475 -1.737,1.438 -3.263,2.888c-1.449,1.525 -2.412,2.613 -2.887,3.263c-0.775,1.074 -1.15,2.024 -1.125,2.849c-0.025,0.825 0.35,1.763 1.125,2.813c0.475,0.65 1.438,1.737 2.887,3.262c1.526,1.45 2.613,2.413 3.263,2.888c1.05,0.775 1.987,1.15 2.813,1.125c0.825,0.025 1.762,-0.338 2.812,-1.088l0,-18m-1.65,-7.199c0,-0.576 -0.263,-1.213 -0.788,-1.913c-0.174,-0.25 -0.475,-0.6 -0.9,-1.05l-10.387,0c-0.425,0.45 -0.737,0.8 -0.937,1.05c-0.526,0.7 -0.776,1.337 -0.75,1.913l0,0.037c-0.026,0.55 0.224,1.188 0.75,1.912c0.325,0.45 0.987,1.188 1.987,2.213c1.025,1 1.762,1.663 2.212,1.987c0.726,0.526 1.363,0.776 1.913,0.75c0.575,0.026 1.225,-0.224 1.95,-0.75c0.425,-0.324 1.162,-0.987 2.212,-1.987c0.976,-1.025 1.626,-1.763 1.95,-2.213c0.525,-0.724 0.788,-1.362 0.788,-1.912l0,-0.037m-43.087,10.087c-1.551,-1.475 -2.625,-2.438 -3.226,-2.888l-0.037,0l0,18l0.037,-0.037c0.601,-0.45 1.675,-1.413 3.226,-2.888c1.449,-1.525 2.412,-2.612 2.887,-3.262c0.775,-1.05 1.15,-1.988 1.125,-2.813c0.025,-0.825 -0.35,-1.775 -1.125,-2.85c-0.475,-0.649 -1.438,-1.737 -2.887,-3.262m15.075,4.237c-1.55,1.425 -2.575,2.45 -3.075,3.075c-0.85,1.025 -1.288,1.951 -1.313,2.776c-0.075,0.8 0.25,1.762 0.975,2.887c0.425,0.65 1.325,1.788 2.7,3.413c0.75,0.825 1.4,1.5 1.95,2.025c0.45,0.475 0.825,0.824 1.125,1.05c1.025,0.825 1.937,1.249 2.737,1.274c0.826,0.075 1.8,-0.237 2.925,-0.937c0.401,-0.275 1.013,-0.737 1.838,-1.387c0.45,-0.375 0.975,-0.813 1.575,-1.313c1.525,-1.425 2.55,-2.45 3.075,-3.075c0.85,-1.025 1.288,-1.95 1.312,-2.775c0.075,-0.825 -0.249,-1.788 -0.975,-2.888c-0.425,-0.65 -1.325,-1.787 -2.7,-3.412c-1.425,-1.55 -2.449,-2.575 -3.075,-3.075c-1.025,-0.85 -1.949,-1.287 -2.774,-1.313c-0.826,-0.075 -1.788,0.251 -2.888,0.976c-0.675,0.424 -1.813,1.324 -3.412,2.699m-4.088,-6.262c-0.45,-0.45 -0.862,-0.7 -1.237,-0.75c-0.375,-0.05 -0.838,0.062 -1.388,0.337c-0.325,0.176 -0.9,0.551 -1.725,1.125c-0.775,0.626 -1.3,1.075 -1.575,1.351c-0.425,0.45 -0.662,0.862 -0.713,1.237c-0.075,0.375 0.038,0.838 0.338,1.388c0.175,0.325 0.55,0.899 1.125,1.724c0.6,0.801 1.037,1.325 1.313,1.576c0.45,0.45 0.862,0.687 1.237,0.712c0.4,0.075 0.862,-0.038 1.388,-0.337c0.349,-0.176 0.924,-0.551 1.724,-1.125c0.801,-0.626 1.325,-1.063 1.575,-1.313c0.451,-0.45 0.688,-0.862 0.713,-1.237c0.075,-0.401 -0.025,-0.863 -0.3,-1.388c-0.175,-0.325 -0.55,-0.9 -1.125,-1.725c-0.625,-0.8 -1.075,-1.325 -1.35,-1.575m-10.313,20.438l-0.037,0.037c-0.45,0.775 -0.637,1.437 -0.562,1.987c0.024,0.551 0.349,1.163 0.974,1.838c0.351,0.4 1.076,1.062 2.175,1.987c1.151,0.875 1.963,1.438 2.438,1.688c0.775,0.45 1.438,0.638 1.987,0.562c0.576,-0.05 1.188,-0.375 1.838,-0.974c0.4,-0.375 1.062,-1.113 1.987,-2.213c0.875,-1.125 1.45,-1.925 1.726,-2.4c0.45,-0.775 0.624,-1.45 0.524,-2.025c0,-0.15 -0.025,-0.313 -0.075,-0.487c-0.149,-0.425 -0.449,-0.876 -0.899,-1.351c-0.375,-0.4 -1.1,-1.05 -2.175,-1.95c-1.151,-0.874 -1.963,-1.45 -2.438,-1.725c-0.775,-0.45 -1.438,-0.637 -1.988,-0.562c-0.575,0.05 -1.187,0.375 -1.837,0.975c-0.4,0.375 -1.063,1.112 -1.987,2.212c-0.85,1.125 -1.401,1.926 -1.651,2.401Z" style="fill:#7d9598;fill-rule:nonzero;"/><path d="M0.037,10.162c0.601,0.45 1.675,1.413 3.226,2.888c1.449,1.525 2.412,2.613 2.887,3.262c0.775,1.075 1.15,2.025 1.125,2.85c0.025,0.825 -0.35,1.763 -1.125,2.813c-0.475,0.65 -1.438,1.737 -2.887,3.262c-1.551,1.475 -2.625,2.438 -3.226,2.888l-0.037,0.037l0,9.338c0.075,0.05 0.15,0.1 0.225,0.15c0.275,0.225 0.788,0.687 1.538,1.387c0.699,0.725 1.15,1.225 1.349,1.5c0.375,0.526 0.551,0.976 0.526,1.351c0.025,0.4 -0.151,0.85 -0.526,1.349c-0.199,0.275 -0.65,0.788 -1.349,1.538c-0.75,0.7 -1.263,1.15 -1.538,1.35c-0.075,0.075 -0.15,0.137 -0.225,0.188l0,1.687l3,0c0.475,-0.4 0.85,-0.687 1.125,-0.862c0.75,-0.475 1.413,-0.676 1.987,-0.601c0.551,0 1.176,0.3 1.875,0.901c0.151,0.125 0.338,0.312 0.563,0.562l3.225,0c-0.025,-0.775 0.337,-1.662 1.087,-2.662c0.45,-0.626 1.375,-1.675 2.776,-3.15c1.474,-1.4 2.512,-2.326 3.112,-2.776c1.025,-0.75 1.925,-1.112 2.7,-1.087c0.8,-0.025 1.713,0.337 2.738,1.087c0.6,0.45 1.637,1.376 3.112,2.776c1.4,1.475 2.325,2.524 2.775,3.15c0.75,1 1.113,1.887 1.087,2.662l3.075,0c0.3,-0.35 0.663,-0.738 1.088,-1.162c1.025,-0.976 1.762,-1.626 2.212,-1.95c0.726,-0.526 1.363,-0.788 1.913,-0.788c0.575,0 1.225,0.262 1.95,0.788c0.425,0.3 1.163,0.949 2.212,1.95c0.401,0.424 0.763,0.812 1.088,1.162l3.3,0l0,-1.725c-0.425,0.275 -0.8,0.4 -1.125,0.375c-0.4,0.025 -0.85,-0.15 -1.35,-0.525c-0.3,-0.2 -0.813,-0.65 -1.538,-1.35c-0.675,-0.725 -1.125,-1.238 -1.349,-1.538c-0.375,-0.499 -0.551,-0.949 -0.526,-1.349c-0.025,-0.375 0.151,-0.825 0.526,-1.351c0.224,-0.275 0.674,-0.775 1.349,-1.5c0.725,-0.7 1.238,-1.162 1.538,-1.387c0.5,-0.35 0.95,-0.525 1.35,-0.525c0.325,0 0.7,0.125 1.125,0.375l0,-9.338c-1.05,0.75 -1.987,1.113 -2.813,1.088c-0.825,0.025 -1.762,-0.35 -2.812,-1.125c-0.65,-0.475 -1.737,-1.438 -3.263,-2.888c-1.449,-1.525 -2.412,-2.612 -2.887,-3.262c-0.775,-1.05 -1.15,-1.988 -1.125,-2.813c-0.025,-0.825 0.35,-1.775 1.125,-2.85c0.475,-0.649 1.438,-1.737 2.887,-3.262c1.526,-1.45 2.613,-2.413 3.263,-2.888c1.05,-0.775 1.987,-1.15 2.813,-1.125c0.825,-0.025 1.749,0.35 2.775,1.125l0.037,0l0,-2.437l-0.037,-0.038c-0.251,-0.324 -0.438,-0.599 -0.563,-0.825c-0.5,-0.75 -0.712,-1.412 -0.637,-1.987c0.025,-0.55 0.324,-1.163 0.899,-1.838c0.026,-0.025 0.05,-0.049 0.075,-0.074c0.051,-0.1 0.126,-0.188 0.226,-0.263c0,-0.025 0.012,-0.038 0.037,-0.038l0,-2.662l-3.338,0c0.425,0.45 0.726,0.8 0.901,1.05c0.524,0.7 0.787,1.337 0.787,1.913l0,0.037c0,0.55 -0.263,1.187 -0.788,1.912c-0.324,0.45 -0.974,1.188 -1.95,2.213c-1.05,1 -1.787,1.663 -2.212,1.987c-0.725,0.526 -1.375,0.776 -1.95,0.75c-0.55,0.026 -1.187,-0.224 -1.913,-0.75c-0.45,-0.324 -1.187,-0.987 -2.212,-1.987c-1,-1.025 -1.662,-1.763 -1.987,-2.213c-0.525,-0.725 -0.775,-1.362 -0.75,-1.912l0,-0.037c-0.025,-0.576 0.225,-1.213 0.75,-1.913c0.2,-0.25 0.512,-0.6 0.937,-1.05l-3.113,0c0.026,0.8 -0.337,1.712 -1.087,2.737c-0.05,0.075 -0.1,0.151 -0.15,0.226c-0.5,0.625 -1.375,1.587 -2.625,2.887c-1.475,1.4 -2.512,2.325 -3.112,2.775c-1.025,0.75 -1.938,1.113 -2.738,1.088c-0.775,0.025 -1.675,-0.338 -2.7,-1.088c-0.6,-0.45 -1.638,-1.375 -3.112,-2.775c-1.25,-1.3 -2.113,-2.262 -2.588,-2.887c-0.075,-0.075 -0.137,-0.15 -0.188,-0.226c-0.75,-1.025 -1.112,-1.937 -1.087,-2.737l-3.225,0c0.4,0.375 0.9,0.887 1.5,1.537c0.45,0.55 0.838,1.026 1.163,1.426c0.275,0.4 0.487,0.712 0.637,0.937c0.475,0.775 0.675,1.437 0.6,1.988c-0.025,0.574 -0.325,1.2 -0.9,1.875c-0.35,0.425 -1.063,1.112 -2.138,2.062c-1.075,0.9 -1.849,1.5 -2.324,1.8c-0.775,0.475 -1.438,0.688 -1.988,0.638c-0.575,-0.026 -1.2,-0.325 -1.875,-0.901c-0.4,-0.349 -1.087,-1.062 -2.063,-2.137c-0.474,-0.6 -0.862,-1.1 -1.162,-1.5l0,2.437l0.037,0m3.863,21.338l0.038,-0.037c0.25,-0.475 0.8,-1.276 1.65,-2.401c0.924,-1.1 1.587,-1.837 1.987,-2.212c0.65,-0.6 1.262,-0.925 1.837,-0.975c0.55,-0.075 1.213,0.112 1.988,0.563c0.475,0.274 1.288,0.85 2.438,1.724c1.075,0.901 1.8,1.55 2.175,1.95c0.45,0.475 0.75,0.926 0.899,1.351c0.05,0.174 0.075,0.337 0.075,0.487c0.1,0.575 -0.074,1.25 -0.524,2.025c-0.275,0.475 -0.851,1.275 -1.726,2.4c-0.924,1.1 -1.587,1.838 -1.987,2.213c-0.65,0.6 -1.262,0.924 -1.838,0.975c-0.549,0.075 -1.212,-0.113 -1.987,-0.563c-0.475,-0.25 -1.287,-0.812 -2.438,-1.687c-1.099,-0.926 -1.824,-1.588 -2.174,-1.988c-0.625,-0.675 -0.951,-1.287 -0.975,-1.838c-0.075,-0.549 0.112,-1.212 0.562,-1.987m9.113,-21.225c0.375,0.05 0.787,0.3 1.237,0.75c0.275,0.25 0.725,0.775 1.35,1.575c0.575,0.825 0.95,1.4 1.125,1.725c0.275,0.525 0.375,0.988 0.3,1.388c-0.025,0.375 -0.262,0.787 -0.712,1.237c-0.25,0.25 -0.775,0.688 -1.576,1.313c-0.799,0.574 -1.375,0.949 -1.724,1.125c-0.526,0.3 -0.988,0.412 -1.388,0.337c-0.375,-0.025 -0.787,-0.262 -1.237,-0.712c-0.276,-0.25 -0.713,-0.775 -1.313,-1.575c-0.575,-0.826 -0.95,-1.4 -1.125,-1.725c-0.3,-0.55 -0.413,-1.013 -0.338,-1.388c0.051,-0.375 0.288,-0.787 0.713,-1.237c0.275,-0.275 0.8,-0.725 1.575,-1.351c0.825,-0.574 1.4,-0.949 1.725,-1.125c0.55,-0.275 1.013,-0.387 1.388,-0.337m2.25,10.087c0.5,-0.625 1.525,-1.65 3.075,-3.075c1.6,-1.375 2.737,-2.274 3.412,-2.699c1.1,-0.725 2.063,-1.051 2.888,-0.976c0.825,0.026 1.749,0.463 2.774,1.313c0.626,0.5 1.651,1.525 3.075,3.075c1.375,1.625 2.275,2.762 2.701,3.412c0.725,1.101 1.049,2.063 0.974,2.888c-0.024,0.825 -0.462,1.75 -1.312,2.775c-0.525,0.625 -1.55,1.65 -3.075,3.075c-0.6,0.5 -1.125,0.938 -1.575,1.313c-0.825,0.65 -1.437,1.112 -1.838,1.387c-1.125,0.7 -2.099,1.012 -2.924,0.937c-0.801,-0.024 -1.713,-0.449 -2.738,-1.274c-0.3,-0.226 -0.675,-0.575 -1.125,-1.05c-0.55,-0.525 -1.2,-1.2 -1.95,-2.025c-1.375,-1.625 -2.275,-2.763 -2.7,-3.413c-0.725,-1.125 -1.05,-2.087 -0.975,-2.887c0.025,-0.825 0.463,-1.75 1.313,-2.776m16.875,-14.625c0.3,0.201 0.812,0.651 1.537,1.351c0.7,0.75 1.15,1.262 1.35,1.537c0.375,0.5 0.55,0.938 0.525,1.313c0.025,0.399 -0.15,0.85 -0.525,1.349c-0.2,0.3 -0.65,0.813 -1.35,1.538c-0.725,0.7 -1.237,1.162 -1.537,1.388c-0.5,0.35 -0.95,0.524 -1.351,0.524c-0.375,0 -0.812,-0.174 -1.312,-0.524c-0.3,-0.226 -0.812,-0.688 -1.537,-1.388c-0.7,-0.725 -1.163,-1.238 -1.388,-1.538c-0.35,-0.499 -0.525,-0.95 -0.525,-1.349c0,-0.375 0.175,-0.813 0.525,-1.313c0.225,-0.3 0.688,-0.812 1.388,-1.537c0.725,-0.7 1.237,-1.15 1.537,-1.351c0.5,-0.375 0.937,-0.562 1.312,-0.562c0.401,0 0.851,0.187 1.351,0.562m0.149,25.726c0.251,-0.275 0.538,-0.588 0.863,-0.938c1.025,-0.975 1.762,-1.637 2.212,-1.988c0.725,-0.524 1.363,-0.774 1.913,-0.75c0.575,-0.024 1.225,0.226 1.95,0.75c0.425,0.326 1.163,0.988 2.212,1.988c0.325,0.35 0.625,0.663 0.901,0.938c0.499,0.549 0.862,0.975 1.087,1.274c0.525,0.725 0.775,1.363 0.75,1.913c0.025,0.575 -0.225,1.225 -0.75,1.95c-0.325,0.45 -0.988,1.188 -1.988,2.213c-1.049,1 -1.787,1.662 -2.212,1.987c-0.725,0.525 -1.375,0.775 -1.95,0.75c-0.55,0.025 -1.188,-0.225 -1.913,-0.75c-0.45,-0.35 -1.187,-1.012 -2.212,-1.987c-0.975,-1.025 -1.625,-1.763 -1.95,-2.213c-0.55,-0.725 -0.812,-1.375 -0.788,-1.95c-0.024,-0.55 0.238,-1.188 0.788,-1.913c0.225,-0.299 0.588,-0.725 1.087,-1.274m-32.287,-31.463l0,2.662c0.375,-0.424 0.962,-0.999 1.763,-1.724c0.474,-0.375 0.887,-0.688 1.237,-0.938l-3,0Z" style="fill:#758c8e;fill-rule:nonzero;"/><path d="M11.213,6.97l-0.038,0c-0.924,0.126 -1.749,0.326 -2.475,0.6c-1.286,0.483 -2.274,1.195 -2.962,2.138c-0.562,0.771 -0.925,1.696 -1.088,2.775c-0.075,0.175 -0.112,0.362 -0.112,0.562l0,9.863c-0.05,1.375 0.337,2.387 1.162,3.037l0.075,0.038c-0.05,0 -0.075,0.012 -0.075,0.037c-0.875,0.225 -1.662,0.638 -2.362,1.238l-0.038,0.037c-1.225,1.1 -1.825,2.388 -1.8,3.863l0,0.15c0,1.525 0.588,2.787 1.763,3.787c0.85,0.825 1.85,1.35 3,1.575c0,0.1 0.012,0.213 0.037,0.338c0.025,0.375 0.1,0.737 0.225,1.087c0.15,0.5 0.313,0.938 0.488,1.313c0.025,0.025 0.05,0.05 0.075,0.075c0.9,1.675 2.487,2.512 4.762,2.512l24.525,0c3.1,-0.025 4.95,-1.5 5.55,-4.425c0,-0.025 0.013,-0.037 0.038,-0.037l0,-0.113c0.075,-0.175 0.112,-0.362 0.112,-0.562l0,-0.113c0,-0.025 0.013,-0.05 0.038,-0.075l0,-0.112c0.95,-0.225 1.8,-0.688 2.55,-1.388c1.225,-1.025 1.837,-2.312 1.837,-3.862c0,-1.575 -0.6,-2.913 -1.8,-4.013l-0.037,-0.037c-0.625,-0.55 -1.313,-0.938 -2.063,-1.163c-0.025,-0.125 -0.037,-0.237 -0.037,-0.337l0,-0.075c0.65,-0.625 0.975,-1.55 0.975,-2.775l0,-9.863c0,-0.275 -0.05,-0.512 -0.15,-0.712c-0.192,-1.017 -0.567,-1.892 -1.125,-2.625c-0.696,-0.951 -1.696,-1.663 -3,-2.138c-0.714,-0.257 -1.514,-0.445 -2.4,-0.562c-8.575,-1.325 -17.125,-1.338 -25.65,-0.038m-5.138,6.075c0.179,-1.439 0.791,-2.552 1.838,-3.337c0.868,-0.647 2.031,-1.072 3.487,-1.275c2.918,-0.443 5.83,-0.731 8.738,-0.863c2.5,-0.112 4.988,-0.112 7.462,0c3.019,0.136 6.032,0.436 9.038,0.9c1.425,0.191 2.563,0.604 3.412,1.238c1.069,0.778 1.706,1.891 1.913,3.337l0.075,0l0,10.013c-0.031,0.913 -0.381,1.551 -1.05,1.912c0.031,0.286 0.056,0.574 0.075,0.863c0,0.15 0.012,0.312 0.037,0.487c0.016,0.332 0.028,0.657 0.038,0.975c0.982,0.113 1.832,0.475 2.55,1.088c0.875,0.8 1.312,1.775 1.312,2.925c0,1.075 -0.437,1.975 -1.312,2.7c-0.807,0.783 -1.782,1.195 -2.925,1.237c-0.047,0.401 -0.097,0.801 -0.15,1.2c-0.025,0.125 -0.038,0.263 -0.038,0.413c-0.05,0.125 -0.087,0.262 -0.112,0.412c-0.45,2.15 -1.813,3.225 -4.088,3.225l-24.525,0c-1.65,0 -2.812,-0.587 -3.487,-1.762c-0.15,-0.3 -0.288,-0.663 -0.413,-1.088c-0.075,-0.25 -0.125,-0.512 -0.15,-0.787c-0.088,-0.539 -0.176,-1.077 -0.262,-1.613l-0.15,0c-1.2,0 -2.225,-0.412 -3.075,-1.237c-0.875,-0.7 -1.313,-1.6 -1.313,-2.7l0,-0.15c0,-1.05 0.438,-1.975 1.313,-2.775c0.793,-0.677 1.731,-1.039 2.812,-1.088c0.02,-0.224 0.032,-0.449 0.038,-0.675l0,-0.15c0.022,-0.463 0.047,-0.925 0.075,-1.387c-0.75,-0.304 -1.15,-0.904 -1.2,-1.8l0,-0.375l0,-9.863l0.037,0Z" style="fill:#fff;fill-rule:nonzero;"/><path d="M7.913,9.708c-1.047,0.785 -1.659,1.898 -1.838,3.337l-0.037,0l0,10.238c0.05,0.896 0.45,1.496 1.2,1.8c-0.028,0.462 -0.053,0.924 -0.075,1.387l0,0.15c-0.006,0.226 -0.018,0.451 -0.038,0.675c-1.081,0.049 -2.019,0.411 -2.812,1.088c-0.875,0.8 -1.313,1.725 -1.313,2.775l0,0.15c0,1.1 0.438,2 1.313,2.7c0.85,0.825 1.875,1.237 3.075,1.237l0.15,0c0.086,0.536 0.174,1.074 0.262,1.613c0.025,0.275 0.075,0.537 0.15,0.787c0.125,0.425 0.263,0.788 0.413,1.088c0.675,1.175 1.837,1.762 3.487,1.762l24.525,0c2.275,0 3.638,-1.075 4.088,-3.225c0.025,-0.15 0.062,-0.287 0.112,-0.412c0,-0.15 0.013,-0.288 0.038,-0.413c0.053,-0.399 0.103,-0.799 0.15,-1.2c1.143,-0.042 2.118,-0.454 2.925,-1.237c0.875,-0.725 1.312,-1.625 1.312,-2.7c0,-1.15 -0.437,-2.125 -1.312,-2.925c-0.718,-0.613 -1.568,-0.975 -2.55,-1.088c-0.01,-0.318 -0.022,-0.643 -0.038,-0.975c-0.025,-0.175 -0.037,-0.337 -0.037,-0.487c-0.019,-0.289 -0.044,-0.577 -0.075,-0.863c0.669,-0.361 1.019,-0.999 1.05,-1.912l0,-10.013l-0.075,0c-0.207,-1.446 -0.844,-2.559 -1.913,-3.337c-0.849,-0.634 -1.987,-1.047 -3.412,-1.238c-3.006,-0.464 -6.019,-0.764 -9.038,-0.9c-2.474,-0.112 -4.962,-0.112 -7.462,0c-2.908,0.132 -5.82,0.42 -8.738,0.863c-1.456,0.203 -2.619,0.628 -3.487,1.275m-0.375,3.637c0.008,-0.034 0.008,-0.072 0,-0.112c0.138,-0.998 0.563,-1.773 1.275,-2.325c0.699,-0.5 1.624,-0.837 2.775,-1.013l0.037,0c2.868,-0.421 5.73,-0.696 8.588,-0.825c2.45,-0.11 4.888,-0.11 7.312,0c2.969,0.133 5.932,0.421 8.888,0.863c1.152,0.163 2.077,0.488 2.775,0.975c0.72,0.552 1.145,1.327 1.275,2.325c0.025,0.098 0.05,0.185 0.075,0.262l0,9.488c-0.012,0.308 -0.1,0.533 -0.263,0.675c-0.251,0.144 -0.451,0.344 -0.6,0.6c-0.129,0.251 -0.191,0.513 -0.187,0.787c0.031,0.299 0.056,0.586 0.075,0.863c0.005,0.16 0.017,0.323 0.037,0.487c0.016,0.319 0.028,0.632 0.038,0.938c0.015,0.387 0.152,0.712 0.412,0.975c0.255,0.294 0.568,0.456 0.938,0.487c0.663,0.079 1.238,0.316 1.725,0.713c0.52,0.503 0.782,1.103 0.787,1.8c-0.009,0.611 -0.272,1.123 -0.787,1.537c-0.019,0.031 -0.044,0.056 -0.075,0.075c-0.532,0.528 -1.182,0.803 -1.95,0.825c-0.354,0.012 -0.666,0.137 -0.938,0.375c-0.271,0.269 -0.434,0.581 -0.487,0.938c-0.034,0.4 -0.084,0.788 -0.15,1.162c-0.006,0.12 -0.019,0.233 -0.038,0.338c-0.035,0.154 -0.072,0.304 -0.112,0.45l0.037,-0.038c-0.288,1.367 -1.163,2.042 -2.625,2.025l-24.525,0c-0.979,-0.001 -1.692,-0.313 -2.137,-0.937c-0.115,-0.234 -0.228,-0.521 -0.338,-0.863c-0.034,-0.142 -0.059,-0.304 -0.075,-0.487c-0.005,-0.025 -0.017,-0.063 -0.037,-0.113c-0.076,-0.514 -0.151,-1.039 -0.225,-1.575c-0.047,-0.355 -0.209,-0.655 -0.488,-0.9c-0.285,-0.248 -0.622,-0.373 -1.012,-0.375l-0.15,0c-0.791,0.005 -1.466,-0.27 -2.025,-0.825c-0.038,-0.019 -0.075,-0.044 -0.113,-0.075c-0.496,-0.4 -0.746,-0.912 -0.75,-1.537l0,-0.15c0.019,-0.612 0.282,-1.162 0.788,-1.65c0.013,0.001 0.026,-0.012 0.037,-0.038c0.534,-0.422 1.159,-0.647 1.875,-0.675c0.4,-0.018 0.738,-0.168 1.013,-0.45c0.276,-0.282 0.414,-0.62 0.412,-1.012c0.02,-0.225 0.032,-0.45 0.038,-0.675l0,-0.038l0,-0.075c0.022,-0.456 0.047,-0.919 0.075,-1.387c0.021,-0.311 -0.054,-0.611 -0.225,-0.9c-0.175,-0.257 -0.413,-0.445 -0.713,-0.563c-0.163,-0.095 -0.25,-0.257 -0.262,-0.487l0,-0.3l0,-9.563Z" style="fill-opacity:0.2;fill-rule:nonzero;"/></svg>