<?xml version="1.0" encoding="UTF-8" standalone="no"?><!DOCTYPE svg PUBLIC "-//W3C//DTD SVG 1.1//EN" "http://www.w3.org/Graphics/SVG/1.1/DTD/svg11.dtd"><svg width="100%" height="100%" viewBox="0 0 48 48" version="1.1" xmlns="http://www.w3.org/2000/svg" xmlns:xlink="http://www.w3.org/1999/xlink" xml:space="preserve" xmlns:serif="http://www.serif.com/" style="fill-rule:evenodd;clip-rule:evenodd;stroke-linejoin:round;stroke-miterlimit:2;"><path d="M46.5,21.011c-0.1,-2.007 -1.587,-3.011 -4.463,-3.011l-36.074,0c-2.876,0 -4.363,1.004 -4.463,3.011l0,22.505c0.1,1.989 1.587,2.984 4.463,2.984l36.074,0c2.876,0 4.363,-0.995 4.463,-2.984l0,-22.505Z" style="fill:#3c3c3c;fill-rule:nonzero;"/><path d="M42.037,18c2.876,0 4.363,1.4 4.463,4.2l0,-1.5c-0.1,-2.8 -1.587,-4.2 -4.463,-4.2l-36.074,0c-2.876,0 -4.363,1.4 -4.463,4.2l0,1.5c0.1,-2.8 1.587,-4.2 4.463,-4.2l36.074,0Z" style="fill:#3a3a3a;fill-rule:nonzero;"/><path d="M46.5,5.963c0,-2.975 -1.487,-4.463 -4.463,-4.463l-36.074,0c-2.976,0 -4.463,1.488 -4.463,4.463l0,14.737c0.1,-2.8 1.587,-4.2 4.463,-4.2l36.074,0c2.876,0 4.363,1.4 4.463,4.2l0,-14.737Z" style="fill:#484848;fill-rule:nonzero;"/><path d="M48,5.963c0,-3.975 -1.987,-5.963 -5.963,-5.963l-36.074,0c-3.976,0 -5.963,1.988 -5.963,5.963l0,36.074c0,2 0.5,3.5 1.5,4.5c0.875,0.851 2.125,1.338 3.75,1.463l37.5,0c1.625,-0.125 2.875,-0.612 3.75,-1.463c1,-1 1.5,-2.5 1.5,-4.5l0,-36.074m-5.963,-4.463c2.976,0 4.463,1.488 4.463,4.463l0,36.375c-0.1,2.775 -1.587,4.162 -4.463,4.162l-36.074,0c-2.876,0 -4.363,-1.387 -4.463,-4.162l0,-31.388l0,-1.5l0,-3.487c0,-2.975 1.487,-4.463 4.463,-4.463l36.074,0Z" style="fill:#5f5f5f;fill-rule:nonzero;"/></svg>